<?xml version="1.0" standalone="no"?>
<!DOCTYPE svg PUBLIC "-//W3C//DTD SVG 20010904//EN"
 "http://www.w3.org/TR/2001/REC-SVG-20010904/DTD/svg10.dtd">
<svg version="1.0" xmlns="http://www.w3.org/2000/svg"
 width="928.000000pt" height="926.000000pt" viewBox="0 0 928.000000 926.000000"
 preserveAspectRatio="xMidYMid meet">

<g transform="translate(0.000000,926.000000) scale(0.100000,-0.100000)"
fill="#000000" stroke="none">
<path d="M4285 9160 c-309 -20 -691 -93 -1005 -192 -713 -224 -1337 -603
-1865 -1133 -776 -779 -1243 -1817 -1306 -2905 -57 -974 183 -1901 703 -2720
70 -110 218 -318 266 -375 9 -11 53 -63 97 -115 103 -123 403 -424 525 -525
52 -44 97 -82 100 -85 3 -3 21 -17 40 -30 19 -13 37 -27 40 -30 8 -8 135 -100
225 -161 442 -302 1023 -550 1555 -664 237 -50 387 -72 635 -90 252 -19 408
-19 660 0 877 66 1665 359 2375 883 231 171 440 362 661 604 324 356 619 819
812 1273 51 121 57 138 123 335 245 737 294 1551 139 2315 -43 211 -63 286
-145 533 -274 830 -771 1540 -1485 2121 -148 120 -431 307 -635 419 -74 40
-338 172 -345 172 -3 0 -58 22 -123 49 -258 109 -667 227 -902 262 -36 5 -72
11 -80 14 -8 2 -87 14 -175 25 -180 23 -675 35 -890 20z m651 -40 c404 -27
888 -127 1204 -250 30 -12 66 -25 80 -30 78 -26 264 -108 395 -173 327 -162
577 -325 875 -567 135 -110 454 -426 561 -555 41 -49 77 -92 80 -95 40 -34
316 -440 384 -565 20 -38 41 -74 45 -80 19 -23 161 -320 210 -435 340 -811
429 -1741 251 -2630 -45 -220 -159 -606 -221 -745 -5 -11 -15 -36 -23 -55 -88
-209 -217 -461 -330 -645 -366 -595 -893 -1118 -1493 -1482 -589 -358 -1223
-565 -1939 -635 -166 -16 -623 -16 -780 0 -339 35 -697 107 -975 197 -630 203
-1220 548 -1684 985 -207 195 -375 381 -525 580 -539 714 -845 1535 -901 2420
-36 573 38 1159 211 1683 315 948 910 1738 1739 2310 57 40 125 84 150 98 25
15 88 52 140 83 233 140 619 310 870 385 41 12 86 26 100 31 51 18 259 69 380
94 380 75 795 102 1196 76z"/>
<path d="M4485 8874 c-6 -2 -9 -58 -8 -142 3 -336 4 -629 1 -643 -2 -10 11
-15 52 -19 l55 -6 -40 -8 c-22 -5 -58 -21 -79 -35 -70 -46 -78 -49 -165 -56
-87 -6 -262 -33 -381 -59 -271 -59 -496 -137 -761 -265 -102 -49 -368 -203
-418 -242 -40 -32 -57 -24 -29 14 41 53 56 90 63 153 24 212 -182 471 -393
493 -71 7 -140 -7 -163 -35 -9 -11 -8 -14 9 -14 31 0 84 -51 118 -112 26 -48
29 -62 29 -145 0 -51 2 -93 5 -93 3 0 14 25 23 57 12 39 15 59 7 67 -20 20
-11 65 15 79 l26 13 -31 39 c-17 22 -52 54 -77 72 -60 42 -30 44 43 3 155 -89
314 -324 318 -470 2 -101 -38 -150 -130 -158 -44 -4 -61 0 -115 29 -101 54
-259 230 -259 289 0 12 -4 19 -9 16 -8 -5 -39 63 -57 123 -8 29 -7 104 1 135
14 49 -35 -30 -55 -90 -21 -63 -21 -80 8 -224 9 -43 58 -115 136 -198 110
-115 244 -157 369 -113 31 11 57 18 57 16 0 -3 -53 -48 -117 -102 -65 -53
-182 -160 -260 -237 -79 -77 -149 -144 -156 -148 -8 -4 -30 1 -50 12 -37 20
-243 151 -262 167 -5 5 -80 53 -165 107 -85 54 -165 107 -177 118 l-22 20 -47
-72 c-32 -49 -44 -77 -38 -86 5 -7 44 -58 86 -114 43 -56 78 -106 78 -110 0
-5 -25 0 -56 10 -30 11 -83 24 -117 30 -34 6 -74 13 -88 16 -24 5 -31 -2 -73
-67 -49 -78 -53 -89 -33 -89 8 0 61 -31 118 -68 57 -38 190 -123 296 -191 105
-67 197 -129 203 -136 10 -12 5 -28 -28 -82 -142 -241 -288 -598 -350 -858
-17 -71 -28 -122 -63 -299 -24 -125 -41 -424 -36 -631 l6 -210 -51 -35 c-28
-19 -69 -59 -92 -89 l-41 -54 -9 26 c-6 15 -13 27 -17 27 -18 0 -49 -93 -49
-150 0 -60 -6 -70 -28 -48 -28 28 -22 -7 12 -76 23 -48 52 -89 81 -114 29 -25
43 -45 40 -55 -6 -15 69 -88 116 -113 22 -11 29 -25 39 -76 18 -98 19 -93 -18
-90 -28 2 -33 -1 -28 -15 4 -14 -11 -26 -75 -56 -72 -34 -94 -57 -53 -57 30 0
12 -32 -37 -62 -46 -29 -49 -33 -33 -45 10 -7 21 -13 26 -13 4 0 8 -4 8 -10 0
-14 -71 -112 -92 -128 -22 -16 -15 -30 18 -43 16 -5 24 -15 22 -26 -2 -11 5
-19 17 -21 11 -2 26 -11 32 -20 15 -19 17 -68 3 -77 -22 -13 -10 -35 20 -35
23 0 33 -7 45 -30 9 -17 20 -28 25 -25 5 3 27 -3 49 -15 22 -11 54 -20 71 -20
26 0 30 3 25 19 -5 17 15 30 48 31 13 0 7 -41 -13 -80 -21 -42 -26 -80 -10
-80 5 0 18 -20 29 -45 28 -63 59 -105 79 -105 8 0 26 -10 39 -22 19 -18 28
-20 41 -12 13 9 27 6 60 -10 35 -17 46 -18 62 -8 11 7 38 12 61 12 30 0 46 6
58 22 23 27 49 18 53 -19 2 -15 8 -27 15 -26 6 2 15 -7 18 -18 4 -11 39 -52
78 -90 55 -53 73 -66 79 -55 7 13 15 13 60 0 28 -9 84 -17 123 -18 l72 -1 74
-67 c275 -245 502 -401 799 -549 478 -236 938 -343 1480 -343 674 0 1286 185
1845 557 147 98 180 123 325 247 301 256 549 563 757 935 40 71 129 258 154
324 17 44 34 72 58 90 19 14 62 51 95 83 l61 56 60 -18 c33 -10 90 -27 128
-37 37 -10 67 -22 68 -28 1 -5 2 -21 2 -35 2 -21 8 -26 35 -28 17 -2 32 -8 32
-14 0 -11 28 -8 124 12 27 5 65 22 84 36 27 21 36 24 42 13 7 -10 11 -10 23 0
19 15 57 94 57 118 0 10 14 31 30 47 29 28 40 66 20 66 -5 0 -10 20 -10 44 0
34 -4 46 -18 50 -10 4 -24 21 -30 40 -7 18 -30 54 -52 79 -45 50 -49 75 -20
102 11 10 20 31 20 47 0 15 5 28 10 28 17 0 2 67 -30 136 -20 45 -25 65 -17
73 6 6 9 12 6 14 -59 45 -142 97 -163 103 -14 3 -29 10 -32 15 -3 5 -18 9 -35
9 -24 0 -29 4 -29 25 0 13 7 28 16 33 13 7 14 15 5 47 -5 20 -8 49 -5 64 4 20
-1 36 -22 60 -22 27 -25 34 -13 42 11 8 8 15 -17 37 -17 15 -33 34 -37 43 -6
18 -85 49 -123 49 -13 0 -26 5 -29 11 -4 5 -17 14 -29 19 -21 7 -24 21 -40
150 -56 453 -205 891 -439 1285 -57 95 -154 245 -166 255 -3 3 -33 41 -65 85
-168 224 -458 503 -713 684 -190 134 -442 274 -662 366 -83 35 -345 121 -394
130 -32 6 -41 14 -61 54 -37 73 -112 168 -158 202 -66 48 -134 79 -171 79 -19
0 -52 7 -73 16 -29 12 -57 15 -105 11 -87 -7 -105 4 -95 61 5 32 1 53 -15 87
-27 58 -70 89 -133 95 -27 3 -51 10 -53 16 -5 14 54 52 106 70 33 11 37 16 47
68 16 80 41 141 80 192 l34 44 -69 0 c-38 0 -84 3 -102 6 -30 5 -31 4 -14 -7
58 -35 69 -88 34 -179 -22 -58 -53 -104 -97 -145 -49 -46 -52 -39 -54 130 -2
207 -2 199 -13 207 -11 8 -83 9 -100 2z m210 -467 c43 -43 59 -101 50 -189 -7
-63 -10 -70 -34 -80 -74 -29 -77 -43 -11 -52 39 -5 60 -15 88 -41 42 -38 37
-61 -6 -27 -35 29 -61 39 -103 43 -19 2 -44 10 -56 17 -22 14 -23 19 -23 188
l0 174 31 0 c22 0 41 -10 64 -33z m418 -471 c20 -34 51 -98 67 -142 l31 -79
-6 60 c-4 33 -11 79 -17 103 -6 23 -8 45 -5 49 9 9 52 -94 73 -177 25 -98 25
-376 0 -524 -25 -149 -35 -151 -36 -5 0 173 -32 401 -77 559 -9 30 -33 90 -54
132 -22 43 -39 82 -39 87 0 24 28 -4 63 -63z m-67 -61 c38 -66 92 -208 114
-303 21 -88 27 -246 10 -257 -6 -4 -10 6 -10 24 0 16 -5 53 -11 83 -40 198
-51 237 -99 364 -29 75 -45 134 -36 134 3 0 17 -20 32 -45z m344 -72 c45 -119
60 -282 39 -430 -16 -117 -33 -119 -26 -3 8 132 -8 287 -49 463 -12 50 14 29
36 -30z m-618 -179 c89 -169 132 -398 96 -516 -16 -53 -28 -30 -28 53 0 168
-89 447 -189 594 -37 54 -21 51 32 -6 29 -30 69 -86 89 -125z m78 71 c33 -55
38 -50 15 15 -8 24 -13 45 -11 47 9 9 68 -83 105 -162 41 -86 71 -201 71 -271
0 -63 -15 -61 -30 4 -22 96 -29 92 -30 -18 -1 -62 -6 -117 -14 -135 -12 -28
-13 -22 -20 80 -11 162 -50 294 -135 460 -48 94 -48 94 -12 60 18 -16 45 -52
61 -80z m-669 84 c34 -18 10 -29 -62 -29 -95 0 -168 -27 -240 -90 -48 -42 -74
-55 -151 -79 -249 -77 -507 -195 -723 -331 -116 -73 -286 -194 -325 -231 -8
-8 -31 -27 -50 -43 -79 -64 -275 -263 -361 -366 -165 -199 -276 -370 -396
-612 -161 -325 -248 -621 -299 -1013 -20 -152 -23 -521 -6 -630 20 -126 24
-195 12 -195 -23 0 -40 30 -40 69 0 36 -3 40 -27 43 -18 2 -29 10 -32 23 -2
11 -11 25 -20 31 -24 18 -23 556 2 729 87 603 307 1120 672 1578 419 526 1037
931 1669 1093 240 62 336 76 377 53z m1138 -21 c56 -174 54 -494 -4 -596 -15
-26 -16 -25 -10 28 21 209 16 445 -11 573 -9 38 12 34 25 -5z m-271 -65 c39
-92 71 -242 78 -368 9 -163 -9 -143 -36 40 -20 140 -29 182 -69 327 -12 43
-21 81 -21 85 0 14 26 -32 48 -84z m-532 29 c180 -132 308 -401 288 -606 -7
-73 -23 -74 -25 -1 0 22 -4 49 -8 59 -7 19 -8 19 -16 0 -7 -16 -9 -14 -15 16
-6 29 -8 25 -9 -27 -1 -77 -15 -88 -30 -25 -25 100 -33 124 -36 120 -2 -2 0
-21 4 -43 5 -22 11 -69 14 -104 6 -75 -7 -65 -24 19 -6 30 -17 63 -24 74 -12
16 -13 13 -9 -25 2 -24 2 -37 -2 -29 -9 25 -20 50 -74 171 -63 142 -124 248
-179 311 -64 72 -48 65 34 -16 74 -72 94 -80 55 -21 -25 38 -25 49 0 35 40
-22 132 -177 177 -300 13 -37 21 -51 18 -32 -10 70 -75 214 -143 320 -27 43
-30 51 -14 43 11 -6 29 -22 40 -36 11 -14 23 -25 27 -25 9 0 -52 84 -81 111
-24 23 -31 39 -16 39 5 0 27 -13 48 -28z m1181 -73 c994 -350 1775 -1213 2023
-2234 30 -122 60 -282 60 -317 0 -18 -1 -18 -16 -4 -19 20 -19 20 -48 1 -35
-23 -53 -10 -59 44 -7 62 -53 264 -82 367 -59 204 -155 431 -269 634 -73 131
-84 148 -153 248 -350 503 -846 898 -1398 1112 -140 54 -138 53 -157 108 -31
86 -30 86 99 41z m-1550 -64 c159 -60 333 -222 399 -371 38 -86 24 -97 -21
-18 -41 70 -169 213 -181 201 -4 -3 15 -30 40 -58 54 -60 100 -133 94 -150 -2
-7 -30 19 -63 55 -128 146 -318 278 -422 292 -55 8 -68 13 -57 23 5 5 37 5 74
0 86 -12 97 -6 28 16 -32 10 -55 22 -52 26 10 17 95 9 161 -16z m1370 -145 c6
-113 -9 -197 -48 -275 -23 -46 -57 -90 -64 -83 -3 2 9 44 26 92 41 119 62 251
55 356 -5 84 -5 85 10 50 10 -22 18 -75 21 -140z m-1381 4 c27 -13 77 -48 111
-78 64 -59 173 -194 173 -216 0 -7 -53 39 -117 101 -65 63 -150 134 -190 159
-113 70 -99 92 23 34z m1434 -88 c0 -110 -49 -265 -99 -310 -28 -25 -27 -10 5
72 14 37 30 78 35 92 13 35 39 179 39 215 0 23 3 27 10 15 5 -8 10 -46 10 -84z
m-1563 28 c109 -37 323 -186 323 -226 0 -11 -17 -10 -25 2 -8 14 -162 113
-220 143 -28 14 -84 35 -125 47 -88 27 -92 29 -85 41 9 14 79 11 132 -7z m-12
-64 c71 -24 131 -59 209 -119 33 -25 64 -49 70 -53 6 -4 7 -10 3 -14 -3 -4
-24 4 -44 18 -82 53 -227 120 -300 138 -100 26 -105 28 -98 40 10 17 98 11
160 -10z m-27 -65 c34 -8 86 -27 115 -41 85 -43 136 -101 60 -68 -86 36 -153
56 -243 71 -52 8 -104 20 -115 26 -19 10 -18 12 10 18 51 11 107 9 173 -6z
m-76 -59 c86 -14 197 -56 219 -82 15 -18 4 -18 -57 1 -27 8 -50 15 -52 15 -2
0 9 -11 24 -23 l27 -24 -54 8 c-30 4 -99 8 -154 8 -104 1 -145 7 -145 22 0 4
18 13 40 19 64 17 47 23 -45 16 -119 -10 -114 23 7 43 77 13 94 12 190 -3z
m1788 4 c0 -26 -46 -104 -87 -147 -54 -57 -71 -43 -24 20 17 23 45 63 63 90
30 45 48 59 48 37z m-4152 -127 c30 -21 62 -43 72 -49 114 -65 420 -270 420
-280 0 -20 -160 -234 -175 -234 -7 0 -56 28 -109 63 -52 34 -170 110 -261 170
-91 59 -165 112 -165 118 0 16 138 6 211 -15 32 -9 69 -28 84 -41 14 -14 34
-25 43 -25 19 0 112 -56 112 -68 0 -4 4 -13 9 -20 6 -11 14 -10 42 2 19 8 48
18 64 21 28 7 26 8 -34 27 -73 22 -123 52 -165 97 -17 17 -35 31 -41 31 -10 0
-111 115 -153 177 -21 30 -29 63 -16 63 4 0 31 -17 62 -37z m2357 -2 c9 -16
-7 -20 -114 -27 -86 -6 -103 -5 -99 7 2 7 15 16 29 20 37 11 177 10 184 0z
m-125 -50 c0 -12 -46 -20 -61 -10 -8 5 0 9 22 12 19 2 35 5 37 5 1 1 2 -2 2
-7z m1920 -131 c0 -5 -3 -10 -7 -10 -5 0 -19 -3 -33 -6 -24 -5 -24 -5 -6 10
22 18 46 21 46 6z m-2060 -67 c0 -7 -8 -13 -17 -13 -14 -1 -13 -4 6 -14 29
-16 13 -29 -24 -20 -19 5 -25 12 -22 24 2 9 -4 22 -14 29 -11 6 -19 18 -19 26
0 12 7 12 45 -3 25 -9 45 -22 45 -29z m2080 7 c0 -5 -9 -10 -19 -10 -11 0 -27
-3 -35 -6 -12 -5 -15 -2 -10 10 7 17 64 23 64 6z m23 -44 c24 -19 21 -26 -12
-26 -31 0 -47 13 -36 30 8 14 26 12 48 -4z m-2143 -47 c0 -5 -7 -9 -15 -9 -8
0 -15 7 -15 15 0 9 6 12 15 9 8 -4 15 -10 15 -15z m737 -86 c12 -3 28 -12 34
-19 9 -11 15 -11 25 -3 10 8 18 7 31 -7 17 -17 18 -17 21 0 4 16 6 16 27 -4
12 -11 34 -22 48 -24 14 -1 32 -8 40 -14 16 -14 27 -6 27 19 0 31 19 31 34 0
13 -23 21 -29 43 -26 16 1 31 -2 34 -8 4 -6 15 -7 25 -2 21 9 31 11 56 13 10
1 24 14 32 30 l15 27 13 -32 c11 -25 17 -30 26 -21 10 10 22 14 69 20 7 1 14
7 17 15 4 9 14 11 30 7 13 -3 27 -1 31 6 4 6 15 8 25 5 10 -3 21 -1 25 5 3 5
17 10 30 10 13 0 27 5 30 10 11 17 35 12 28 -7 -5 -13 -2 -15 15 -11 13 4 25
1 30 -7 4 -7 18 -15 32 -17 14 -1 26 -11 28 -20 3 -16 -4 -17 -75 -11 -58 4
-86 2 -106 -8 -25 -13 -22 -14 51 -17 59 -2 81 -7 92 -20 8 -10 23 -16 34 -14
10 2 23 -1 29 -7 6 -6 26 -11 43 -11 23 0 42 -9 63 -31 17 -17 31 -35 31 -40
0 -10 -51 -3 -92 13 -14 5 -35 7 -46 4 -11 -4 -23 -2 -27 4 -4 6 -13 7 -23 1
-9 -5 -32 -6 -50 -4 -31 5 -33 8 -27 35 l7 30 -29 -15 c-15 -8 -48 -17 -72
-20 -26 -3 -61 -18 -88 -37 -24 -18 -49 -30 -56 -27 -7 3 -21 -1 -32 -9 -10
-8 -31 -14 -45 -14 -31 0 -40 -16 -75 -125 -21 -65 -25 -70 -51 -70 -25 0 -29
5 -36 40 -10 47 -38 125 -51 143 -5 6 -22 12 -37 12 -15 0 -33 7 -40 15 -7 9
-21 13 -31 10 -12 -4 -32 5 -58 25 -27 22 -54 34 -92 39 -30 4 -64 13 -76 19
-21 12 -22 11 -17 -16 5 -27 3 -30 -24 -34 -17 -2 -38 0 -47 4 -8 5 -20 6 -27
2 -6 -4 -23 -9 -37 -10 -14 -2 -47 -6 -73 -10 -27 -3 -48 -2 -48 2 0 22 56 64
85 64 17 0 41 7 53 16 17 12 26 13 36 5 10 -9 15 -7 19 9 4 17 14 20 64 22 32
1 71 2 87 1 21 -1 25 2 17 10 -8 8 -49 12 -109 12 -80 0 -97 3 -97 15 0 10 12
16 33 18 20 2 32 9 32 18 0 10 7 13 25 8 21 -5 24 -3 18 12 -5 14 -3 16 13 9
10 -4 29 -10 41 -12z m-677 -46 c0 -8 -11 -24 -25 -37 -22 -21 -25 -22 -25 -5
0 19 27 55 42 55 4 0 8 -6 8 -13z m2150 -7 c21 -21 26 -40 12 -40 -9 0 -33 25
-46 48 -11 19 12 14 34 -8z m-2218 -35 c-7 -14 -12 -40 -12 -58 l1 -32 27 33
c35 42 42 41 32 -5 -10 -41 -78 -109 -94 -93 -4 4 -7 27 -4 49 2 23 0 41 -4
41 -5 0 -8 -9 -8 -19 0 -11 -4 -23 -10 -26 -6 -4 -10 12 -10 40 0 40 5 52 36
83 26 26 38 32 46 24 9 -9 8 -18 0 -37z m336 27 c3 -10 -6 -12 -34 -10 -20 2
-39 9 -42 16 -3 10 6 12 34 10 20 -2 39 -9 42 -16z m1650 6 c-5 -15 -42 -22
-66 -13 -14 5 -14 7 -2 15 23 15 72 12 68 -2z m316 -27 c20 -21 30 -43 33 -75
7 -56 -11 -62 -25 -8 -10 37 -10 37 -11 -20 -1 -42 -5 -58 -15 -58 -22 0 -86
77 -86 105 0 32 13 32 34 0 17 -26 38 -34 32 -12 -3 6 -7 31 -10 55 -8 51 7
55 48 13z m-2039 -11 c4 -6 -5 -10 -19 -10 -14 0 -26 5 -26 10 0 6 9 10 19 10
11 0 23 -4 26 -10z m1770 0 c-3 -5 -17 -10 -31 -10 -14 0 -22 4 -19 10 3 6 17
10 31 10 14 0 22 -4 19 -10z m-1835 -104 c0 -3 -4 -8 -10 -11 -5 -3 -10 -1
-10 4 0 6 5 11 10 11 6 0 10 -2 10 -4z m1875 -7 c11 -16 1 -19 -13 -3 -7 8 -8
14 -3 14 5 0 13 -5 16 -11z m-1515 -49 c20 -20 23 -20 86 -5 36 8 101 15 144
15 74 0 81 -2 124 -35 25 -19 52 -32 60 -29 35 14 96 -55 96 -108 0 -25 -2
-27 -32 -22 -31 5 -79 19 -178 50 -25 8 -58 14 -75 14 -16 0 -52 7 -79 15 -27
8 -65 14 -85 14 l-36 -2 40 -6 c80 -13 -3 -20 -99 -9 -50 6 -170 8 -266 5
-216 -6 -164 11 70 22 85 4 145 9 133 9 -12 1 -26 10 -32 20 -9 16 -11 16 -40
-1 -36 -21 -52 -6 -24 25 43 49 156 65 193 28z m1052 -6 c55 -14 58 -14 78 6
50 50 228 2 206 -56 -6 -15 -8 -15 -32 1 -23 15 -27 15 -43 1 -10 -9 -26 -17
-37 -18 -10 -1 53 -5 141 -9 88 -4 183 -12 210 -17 38 -8 10 -9 -115 -5 -91 3
-218 0 -283 -6 -65 -6 -124 -8 -130 -4 -7 5 4 10 28 14 l40 6 -45 2 c-50 1
-123 -16 -116 -28 3 -4 -9 -5 -26 -3 -28 4 -109 -14 -188 -43 -20 -7 -53 -15
-75 -16 -49 -5 -55 12 -26 70 23 44 52 65 80 56 11 -3 34 7 62 29 24 19 55 37
69 39 36 7 135 -2 202 -19z m-1282 -28 c0 -22 -29 -41 -42 -28 -8 8 -8 15 2
27 16 19 40 20 40 1z m1629 5 c18 -12 6 -42 -14 -35 -8 3 -15 15 -15 25 0 21
8 23 29 10z m331 -51 c9 -16 8 -20 -5 -20 -8 0 -15 9 -15 20 0 11 2 20 5 20 2
0 9 -9 15 -20z m-2300 1 c0 -12 -20 -25 -27 -18 -7 7 6 27 18 27 5 0 9 -4 9
-9z m655 -76 c133 -20 220 -51 267 -96 45 -43 53 -89 16 -89 -14 0 -31 -11
-42 -29 -11 -15 -28 -34 -38 -40 -17 -10 -20 -9 -25 8 -4 17 -13 21 -43 21
-32 0 -39 4 -42 23 -4 27 -44 36 -61 14 -7 -9 -21 -17 -32 -19 -16 -3 -20 -11
-20 -41 -1 -39 -17 -59 -42 -50 -8 3 -13 -2 -13 -13 -1 -18 -1 -18 -11 -1 -5
9 -16 17 -22 17 -7 0 -19 21 -26 48 -8 26 -20 54 -27 62 -7 8 -14 33 -16 55
-3 38 -5 40 -40 43 l-38 3 0 -87 c0 -97 7 -94 -64 -29 -25 24 -34 26 -74 20
-35 -5 -54 -16 -84 -48 -32 -32 -42 -37 -49 -26 -25 39 6 162 52 208 17 17 51
37 77 45 63 20 270 20 397 1z m1346 5 c81 -23 149 -101 149 -172 0 -25 -3 -28
-25 -22 -14 3 -25 2 -25 -3 0 -13 -57 -73 -69 -73 -6 0 -11 9 -11 20 0 17 -7
20 -39 20 -33 0 -40 4 -43 23 -4 31 -53 37 -63 7 -5 -15 -12 -19 -26 -15 -17
6 -19 1 -19 -34 0 -46 -15 -59 -64 -53 -26 3 -37 11 -50 38 -9 19 -16 41 -16
49 0 8 -6 18 -14 22 -8 5 -16 27 -18 53 -3 44 -4 45 -40 48 l-38 3 0 -79 c0
-43 -2 -81 -6 -84 -3 -3 -25 14 -49 37 l-44 43 -47 -14 c-49 -14 -84 -39 -84
-58 0 -6 -7 -20 -16 -31 -13 -17 -16 -18 -24 -5 -16 26 -12 123 7 150 40 59
118 94 259 119 121 21 355 27 415 11z m-1941 -30 c0 -5 -6 -10 -14 -10 -8 0
-18 5 -21 10 -3 6 3 10 14 10 12 0 21 -4 21 -10z m2185 0 c-3 -5 -12 -7 -20
-3 -21 7 -19 13 6 13 11 0 18 -4 14 -10z m-1216 -112 c-1 -38 -3 -46 -8 -28
-7 24 -3 80 5 80 2 0 4 -24 3 -52z m28 15 c-3 -10 -5 -4 -5 12 0 17 2 24 5 18
2 -7 2 -21 0 -30z m183 1 c0 -21 -4 -33 -10 -29 -5 3 -10 19 -10 36 0 16 5 29
10 29 6 0 10 -16 10 -36z m-33 4 c-3 -8 -6 -5 -6 6 -1 11 2 17 5 13 3 -3 4
-12 1 -19z m60 -10 c-3 -8 -6 -5 -6 6 -1 11 2 17 5 13 3 -3 4 -12 1 -19z
m1058 -18 c17 -33 13 -52 -10 -44 -12 5 -12 0 -5 -28 6 -18 10 -42 10 -53 0
-16 -5 -12 -22 15 l-23 35 -2 -30 c-6 -58 -14 -95 -21 -95 -4 0 -15 18 -24 41
-16 39 -15 69 3 69 5 0 9 15 9 33 0 24 8 39 32 59 18 15 34 28 35 28 1 0 10
-14 18 -30z m-2311 -6 c16 -16 26 -38 26 -55 0 -15 5 -31 10 -34 15 -9 12 -43
-6 -70 -25 -38 -34 -30 -34 30 0 30 -3 55 -6 55 -3 0 -14 -10 -25 -22 l-18
-23 -1 23 c0 13 5 32 10 43 9 16 7 19 -10 19 -22 0 -25 12 -10 41 14 26 32 24
64 -7z m1196 -71 c0 -16 -10 -18 -74 -18 -53 0 -72 3 -69 12 3 7 31 14 66 16
34 2 65 4 70 5 4 1 7 -6 7 -15z m-111 -64 c24 -9 43 -8 77 1 53 15 68 6 36
-21 -37 -29 -85 -34 -129 -13 -65 33 -53 57 16 33z m-1029 -64 c0 -19 -4 -35
-10 -35 -11 0 -14 53 -3 63 11 12 13 8 13 -28z m1220 -19 c0 -7 -13 -22 -29
-33 -24 -18 -29 -30 -34 -83 -8 -92 -53 -133 -121 -110 -42 14 -66 59 -66 124
0 25 -4 46 -10 46 -5 0 -10 9 -10 20 0 12 -7 20 -16 20 -21 0 -15 39 8 54 25
15 83 -18 99 -55 9 -23 8 -41 -4 -91 -17 -69 -11 -88 28 -88 39 0 45 19 27 86
-21 80 -7 118 52 145 41 18 41 18 59 -2 9 -12 17 -27 17 -33z m935 -11 c6 -29
6 -29 -9 -11 -9 11 -16 29 -16 40 0 28 17 8 25 -29z m-2294 -76 c-6 -17 -11
-45 -11 -62 l0 -29 20 23 19 24 1 -22 c0 -12 -14 -53 -31 -90 -32 -70 -51
-151 -32 -140 6 4 16 20 23 37 16 40 34 39 26 -1 -3 -17 -6 -37 -6 -44 0 -7
-22 -46 -49 -87 -26 -41 -51 -81 -55 -89 -3 -7 -4 6 -1 31 3 25 10 90 14 145
5 55 16 117 26 138 21 51 16 84 -7 42 -14 -26 -17 -28 -24 -12 -9 25 10 82 47
141 21 34 34 45 41 38 7 -7 7 -20 -1 -43z m2473 -29 c19 -35 26 -61 24 -87
l-3 -38 -17 30 c-15 26 -17 27 -18 9 0 -11 9 -47 20 -79 13 -37 20 -84 20
-131 0 -40 4 -83 9 -96 4 -13 5 -32 1 -43 -7 -18 -9 -17 -20 10 -6 16 -23 45
-36 62 -31 41 -54 95 -54 128 0 34 15 32 30 -5 7 -16 17 -30 22 -30 14 0 -2
69 -33 139 -16 35 -29 76 -29 90 l0 26 20 -25 c19 -24 20 -24 20 -4 0 11 -6
42 -14 67 -7 25 -11 48 -8 51 9 10 38 -22 66 -74z m-982 23 l23 -26 -25 8
c-86 25 -122 8 -134 -63 -9 -60 -26 -62 -26 -3 0 103 98 154 162 84z m-456 19
c27 -18 44 -60 44 -105 0 -56 -16 -55 -26 1 -3 20 -16 48 -28 60 -19 21 -27
23 -71 17 l-49 -6 18 20 c19 21 88 29 112 13z m-806 -108 c0 -8 -10 -14 -25
-14 -27 0 -33 18 -13 38 14 14 38 -2 38 -24z m1874 11 c-10 -8 -26 -14 -34
-15 -8 0 -1 8 15 19 34 21 48 18 19 -4z m126 8 c0 -10 -7 -26 -14 -36 -14 -18
-15 -17 -21 3 -7 21 9 50 26 50 5 0 9 -8 9 -17z m-1310 3 c0 -2 -13 -20 -30
-41 -34 -43 -40 -78 -12 -73 26 4 160 -42 195 -68 18 -13 44 -30 59 -39 26
-14 29 -14 48 5 l21 21 25 -20 c29 -23 39 -20 111 33 35 26 169 72 196 68 27
-5 21 29 -13 68 -32 39 -36 50 -17 50 22 0 69 -56 77 -92 l8 -33 1 33 c1 29 4
32 30 32 37 0 76 -49 67 -83 -8 -32 -17 -41 -60 -71 -29 -19 -35 -27 -23 -32
9 -3 24 3 36 15 38 38 101 16 101 -34 0 -13 23 -85 51 -161 57 -155 64 -182
55 -220 -6 -22 -9 -24 -23 -12 -9 7 -24 27 -35 43 -17 28 -18 28 -18 7 0 -13
7 -37 17 -55 9 -18 17 -54 19 -82 2 -27 6 -70 9 -95 9 -65 -6 -125 -30 -125
-18 0 -21 10 -27 87 -8 112 -30 186 -71 240 -57 75 -161 134 -255 146 -52 7
-57 9 -54 30 4 24 2 25 -22 16 -13 -5 -14 -9 -5 -20 7 -8 9 -18 5 -21 -10 -11
-111 -21 -211 -22 -183 -2 -302 -39 -382 -120 -87 -88 -126 -193 -122 -328 2
-58 0 -88 -8 -90 -16 -6 -27 90 -21 188 4 64 11 92 39 148 38 77 35 82 -12 16
-43 -60 -59 -64 -58 -17 1 20 -1 63 -4 96 -4 60 5 95 67 259 14 37 26 77 26
89 0 12 9 32 21 44 18 19 25 21 49 12 16 -5 31 -16 34 -24 5 -14 46 -20 46 -6
0 4 -21 19 -45 34 -53 32 -65 65 -42 114 14 29 22 34 52 34 33 0 35 -2 36 -32
l1 -33 8 33 c8 36 55 92 77 92 7 0 13 -2 13 -4z m1100 -51 c-30 -17 -40 -18
-40 -6 0 10 22 18 50 19 8 1 4 -5 -10 -13z m-1470 -21 c0 -2 -19 -4 -42 -4
-26 0 -38 4 -30 8 12 8 72 4 72 -4z m1388 7 c18 -11 -34 -21 -102 -20 l-51 2
42 6 c24 4 46 10 49 14 10 10 46 8 62 -2z m-1225 -8 c-7 -2 -21 -2 -30 0 -10
3 -4 5 12 5 17 0 24 -2 18 -5z m447 -18 c30 -32 57 -32 92 2 15 15 28 22 28
15 0 -24 -23 -60 -47 -73 -31 -17 -65 1 -95 49 -24 38 -11 42 22 7z m583 18
c-7 -2 -21 -2 -30 0 -10 3 -4 5 12 5 17 0 24 -2 18 -5z m-1423 -48 c-14 -26
-40 -34 -40 -12 0 7 7 23 16 36 23 32 43 12 24 -24z m1809 9 c6 -15 9 -29 6
-32 -10 -11 -40 14 -43 37 -5 30 22 27 37 -5z m-1439 -32 c0 -5 -11 -19 -24
-31 -17 -16 -25 -37 -29 -76 -10 -93 -99 -254 -115 -207 -2 7 -8 10 -13 6 -20
-12 -4 -142 44 -359 32 -142 39 -185 33 -185 -11 0 -44 76 -59 135 -32 122
-46 192 -58 290 -11 94 -10 103 11 158 26 70 66 120 90 114 14 -4 19 4 24 32
3 20 6 47 6 60 0 32 37 71 67 71 13 0 23 -4 23 -8z m1098 -17 c11 -14 22 -49
26 -84 6 -51 9 -58 26 -54 26 7 86 -78 101 -145 10 -41 9 -67 0 -121 -16 -90
-52 -193 -70 -199 -11 -4 -12 2 -6 24 38 144 57 294 37 294 -6 0 -12 -5 -14
-12 -16 -47 -105 114 -115 207 -4 39 -12 60 -29 76 -30 29 -30 39 0 39 14 0
33 -11 44 -25z m-1198 6 c0 -12 -29 -35 -36 -28 -11 10 5 37 21 37 8 0 15 -4
15 -9z m1268 -3 c30 -30 5 -37 -29 -8 -23 19 -23 19 -3 20 11 0 25 -5 32 -12z
m-1747 -62 c-21 -20 -21 -20 -21 0 0 11 8 31 18 44 l17 25 3 -24 c2 -14 -5
-32 -17 -45z m2203 39 c9 -13 16 -32 16 -41 0 -15 -4 -14 -25 6 -24 23 -34 60
-16 60 5 0 16 -11 25 -25z m-1911 9 c7 -8 -34 -94 -45 -94 -4 0 -8 7 -8 15 0
8 -4 15 -10 15 -20 0 -9 29 18 49 29 22 36 24 45 15z m1681 -39 c10 -26 7 -35
-9 -35 -8 0 -15 -7 -15 -15 0 -8 -4 -15 -10 -15 -5 0 -10 7 -10 15 0 9 -7 29
-15 46 -9 16 -13 34 -10 39 8 13 61 -14 69 -35z m339 -90 c37 -65 49 -101 25
-77 -19 19 -30 14 -18 -7 5 -11 10 -42 10 -70 0 -40 -3 -51 -16 -51 -14 0 -16
-11 -12 -80 6 -94 -5 -100 -42 -23 -14 29 -29 52 -34 53 -4 0 -5 -7 -2 -16 19
-50 18 -64 -3 -64 -24 0 -23 1 -12 -59 6 -28 5 -55 -1 -70 -10 -26 -10 -26
-23 13 -26 74 -32 61 -30 -58 l2 -116 -26 0 c-14 0 -37 -1 -51 -2 -23 -3 -25
0 -28 47 -1 28 1 68 6 90 l9 40 15 -35 15 -35 8 29 c8 29 1 153 -11 194 -8 29
20 31 38 2 18 -29 24 -25 38 25 9 32 10 56 2 85 -13 50 -2 57 37 24 40 -33 40
-15 1 51 -45 75 -38 85 25 35 63 -50 54 -23 -13 39 -80 74 -85 107 -10 61 44
-26 48 -25 48 10 0 17 3 30 8 30 4 -1 24 -30 45 -65z m-2373 30 c0 -30 1 -30
42 -5 69 42 65 13 -9 -62 -61 -62 -69 -87 -12 -38 56 48 63 37 24 -37 -19 -36
-33 -69 -30 -71 3 -3 19 7 35 23 16 16 33 26 36 22 4 -3 1 -27 -5 -53 -8 -33
-9 -50 -2 -57 6 -6 11 -27 11 -46 l0 -35 30 29 c16 16 32 26 35 23 3 -3 1 -45
-6 -94 -9 -69 -8 -96 1 -119 l12 -30 13 40 12 40 8 -28 c14 -51 11 -222 -4
-250 -19 -36 -31 -25 -31 31 0 78 -15 85 -44 22 -23 -53 -24 -54 -31 -27 -4
15 -2 47 4 72 13 53 15 233 2 219 -5 -5 -16 -31 -24 -59 -14 -48 -15 -49 -22
-22 -8 29 -2 99 10 130 6 13 2 17 -15 17 -20 0 -21 3 -15 43 l6 42 -28 -49
c-44 -78 -56 -73 -48 19 7 71 6 76 -11 73 -26 -4 -30 36 -10 103 16 52 16 52
-4 34 -30 -27 -25 -3 13 66 34 62 57 76 57 34z m400 -35 c0 -29 -5 -42 -17
-47 -10 -4 -26 -16 -36 -28 -18 -20 -18 -20 -12 10 6 28 50 105 60 105 3 0 5
-18 5 -40z m1566 -26 c18 -46 14 -71 -5 -35 -6 11 -17 18 -25 15 -10 -4 -15 6
-18 33 -3 21 -3 42 -1 46 8 14 32 -14 49 -59z m244 -39 c10 -12 10 -15 -4 -15
-9 0 -16 7 -16 15 0 8 2 15 4 15 2 0 9 -7 16 -15z m-2080 0 c0 -2 -10 -10 -22
-16 -21 -11 -22 -11 -9 4 13 16 31 23 31 12z m52 -22 c-6 -10 -15 -45 -21 -78
-12 -66 -41 -110 -41 -64 0 65 14 120 37 145 26 28 41 27 25 -3z m1977 3 c17
-19 25 -42 30 -91 11 -106 -17 -92 -33 16 -4 26 -13 55 -21 65 -30 40 -11 47
24 10z m-2343 -43 c-7 -75 -16 -132 -23 -163 l-6 -25 -13 30 c-7 17 -13 39
-14 50 0 29 44 165 54 165 4 0 6 -26 2 -57z m2718 -17 c20 -61 20 -125 1 -150
-14 -19 -15 -17 -15 20 0 21 -7 61 -15 88 -8 27 -15 65 -15 85 0 30 2 33 14
21 7 -8 21 -37 30 -64z m-2634 -115 c0 -54 -19 -111 -37 -111 -17 0 -16 23 3
110 18 78 34 79 34 1z m2224 -15 c3 -29 2 -54 -5 -62 -5 -7 -13 -44 -16 -83
-3 -39 -9 -68 -14 -66 -10 7 -39 136 -39 175 0 24 4 30 18 28 14 -2 18 6 20
46 3 43 5 47 16 30 7 -11 16 -41 20 -68z m-1894 29 c0 -43 1 -45 20 -35 19 10
20 8 13 -52 -7 -77 -25 -143 -38 -143 -6 0 -11 31 -13 68 -2 49 -7 70 -18 74
-11 4 -13 14 -9 37 20 99 45 127 45 51z m2226 -66 c7 -90 -1 -96 -29 -21 -20
50 -21 85 -6 114 17 32 27 6 35 -93z m-1363 65 c9 -4 17 -10 17 -15 0 -5 7 -9
15 -9 9 0 15 -9 15 -25 0 -23 -3 -25 -50 -25 -36 0 -52 5 -59 18 -8 15 -11 14
-20 -10 -11 -29 -25 -36 -36 -18 -16 26 60 106 90 94 6 -2 18 -7 28 -10z m191
1 c20 -8 36 -20 36 -25 0 -16 20 -12 51 11 l29 20 30 -30 c34 -33 42 -65 10
-36 -19 18 -20 17 -20 -4 0 -20 -4 -22 -40 -20 -21 2 -42 0 -46 -4 -13 -12
-20 -8 -33 20 -11 24 -14 26 -22 10 -7 -12 -23 -17 -59 -17 -47 0 -50 2 -50
25 0 16 6 25 15 25 8 0 15 5 15 10 0 6 9 10 20 10 11 0 20 5 20 10 0 13 1 13
44 -5z m271 -37 c13 -19 13 -23 1 -26 -8 -2 -16 -12 -19 -23 -9 -32 -49 -21
-59 16 -11 42 -4 55 31 55 20 0 35 -8 46 -22z m-599 -9 c8 -6 9 -20 5 -37 -6
-21 -14 -28 -38 -30 -24 -2 -32 1 -36 18 -3 11 -9 20 -14 19 -23 -4 -24 3 -3
27 25 25 58 27 86 3z m-131 -29 c24 -26 8 -45 -30 -36 -30 8 -44 34 -24 47 21
13 34 11 54 -11z m482 -36 c8 -11 13 -35 11 -54 -3 -33 -5 -34 -48 -37 -27 -2
-49 2 -55 9 -5 7 -17 13 -25 13 -22 0 -25 53 -4 76 23 25 101 20 121 -7z
m-167 -4 c23 -23 25 -39 7 -64 -10 -14 -32 -20 -85 -24 l-72 -5 0 27 c0 29 16
66 34 78 23 16 96 8 116 -12z m287 -3 c4 -8 16 -16 26 -20 20 -7 23 -57 5 -75
-15 -15 -41 -15 -56 0 -7 7 -24 12 -40 13 -22 0 -28 5 -30 27 -3 22 2 30 22
40 14 6 26 15 26 20 0 13 38 9 47 -5z m533 -45 c14 -31 24 -63 24 -69 -1 -7
-2 -22 -3 -34 -1 -26 -21 -15 -21 13 0 11 -9 32 -19 47 -20 28 -24 42 -22 79
2 36 14 25 41 -36z m-1016 32 c23 -9 41 -71 25 -90 -22 -26 -47 -35 -88 -28
-29 5 -41 12 -45 28 -5 17 -11 10 -31 -39 -14 -33 -31 -87 -38 -120 -10 -48
-16 -60 -31 -60 -51 0 -98 205 -63 271 9 16 16 23 17 17 0 -7 7 -13 15 -13 7
0 18 -7 23 -16 6 -11 11 -13 16 -5 4 6 12 11 18 11 10 0 7 -56 -7 -110 -4 -14
9 6 28 45 20 42 36 63 39 55 4 -10 8 -6 13 11 10 38 65 60 109 43z m585 -106
c8 -30 9 -28 10 25 1 61 11 70 35 35 l16 -22 0 22 c0 17 5 21 23 18 12 -3 26
-5 31 -5 5 -1 6 -29 3 -63 -8 -94 -65 -198 -109 -198 -10 0 -18 3 -19 8 0 4
-2 35 -4 69 -2 33 -9 80 -15 103 -6 23 -8 56 -4 73 l7 32 9 -32 c4 -18 12 -48
17 -65z m2501 82 c16 -10 12 -12 -42 -24 -34 -8 -37 7 -5 22 28 14 29 14 47 2z
m-3625 -30 c8 -24 -51 -134 -66 -124 -11 7 -5 30 25 97 23 52 31 57 41 27z
m3835 -25 c0 -8 -4 -15 -9 -15 -5 0 -11 7 -15 15 -3 9 0 15 9 15 8 0 15 -7 15
-15z m-4444 -105 c-4 -37 -3 -61 4 -65 5 -3 10 -3 10 2 0 4 10 19 21 33 l21
25 -7 -52 c-3 -29 -17 -75 -30 -102 -14 -27 -25 -54 -25 -60 0 -6 -6 -11 -14
-11 -27 0 -35 128 -15 236 16 88 18 93 31 70 6 -11 8 -42 4 -76z m122 -9 c-5
-68 -28 -66 -28 2 0 31 3 63 7 73 10 28 25 -22 21 -75z m4106 75 c27 -8 56
-22 66 -31 16 -15 18 -14 23 5 7 28 20 25 56 -11 36 -36 48 -72 33 -102 -6
-12 -13 -44 -15 -70 -3 -32 -16 -66 -38 -100 -18 -29 -50 -86 -71 -129 -45
-92 -75 -118 -133 -118 -36 0 -48 5 -69 30 -29 35 -56 116 -56 169 0 29 19
159 36 248 2 12 15 35 29 51 14 17 25 37 25 45 0 29 44 34 114 13z m-874 -46
c8 -5 11 -12 8 -16 -10 -9 -78 5 -78 16 0 13 50 13 70 0z m-2864 -145 l7 -84
-27 -7 c-39 -9 -60 2 -52 29 8 26 31 119 41 162 7 30 7 30 16 7 5 -13 12 -61
15 -107z m1664 94 c9 -21 10 -33 2 -41 -17 -17 -32 1 -32 38 0 42 13 44 30 3z
m110 -9 c0 -10 -4 -22 -10 -25 -6 -4 -10 7 -10 25 0 18 4 29 10 25 6 -3 10
-15 10 -25z m568 -10 c12 -12 22 -26 22 -33 -1 -7 -11 0 -23 14 -12 15 -29 29
-37 32 -13 5 -13 6 1 6 8 1 25 -8 37 -19z m1911 -1 c18 -11 31 -23 27 -26 -9
-9 -97 28 -90 38 8 14 26 11 63 -12z m-4135 -44 c-7 -59 4 -73 24 -30 19 41
33 30 30 -22 l-3 -48 -42 -3 c-41 -3 -42 -2 -49 33 -7 40 1 91 17 112 22 26
29 12 23 -42z m2866 21 c0 -7 20 -26 44 -44 113 -79 139 -208 61 -299 -65 -76
-175 -85 -257 -20 -77 59 -121 106 -115 121 4 9 2 27 -3 40 -6 16 -4 30 4 42
7 11 16 31 20 46 7 30 99 128 120 128 7 0 25 -9 40 -21 l27 -21 20 26 c20 26
39 27 39 2z m187 -41 c21 -38 22 -55 2 -55 -13 0 -49 61 -49 83 0 29 23 15 47
-28z m-2819 -12 c12 -38 3 -61 -17 -49 -13 8 -15 86 -3 86 5 0 14 -17 20 -37z
m1960 -6 c38 -82 73 -260 106 -542 49 -417 50 -915 2 -980 -12 -17 -87 -29
-181 -30 l-60 0 -2 105 c-3 129 -30 569 -43 705 -5 55 -17 174 -25 265 -15
152 -33 294 -56 429 -14 82 -6 86 157 89 l82 2 20 -43z m1901 -26 c50 -48 54
-61 19 -61 -27 0 -22 -17 12 -36 31 -19 50 -58 50 -105 0 -53 -22 -79 -35 -40
-5 16 -16 9 -76 -50 -120 -118 -239 -188 -320 -189 -101 0 -106 81 -14 266 57
116 164 251 195 247 8 -2 32 -6 53 -9 30 -5 37 -3 37 10 0 28 27 17 79 -33z
m-1722 -51 c70 -30 143 -82 143 -102 0 -25 -10 -23 -50 10 -49 39 -106 72
-165 93 l-50 18 37 1 c20 0 58 -9 85 -20z m-454 -12 c34 -145 93 -797 103
-1139 l7 -236 -44 -6 c-24 -4 -152 -14 -284 -22 -132 -9 -276 -20 -320 -25
-44 -6 -100 -10 -125 -9 -77 1 -16 16 99 24 113 8 282 32 241 34 -39 2 -70 12
-65 21 3 5 -8 11 -25 15 -30 7 -42 24 -17 26 6 1 -6 6 -28 13 -52 16 -269 3
-420 -24 -60 -11 -139 -20 -175 -20 -36 -1 -137 -7 -225 -15 -266 -24 -248
-27 -329 57 -73 76 -196 228 -346 428 -252 335 -382 471 -554 574 -71 43 -62
51 64 60 52 3 156 11 230 17 74 6 216 12 315 14 221 2 348 12 398 31 20 8 59
14 85 14 26 0 165 10 309 22 l262 21 38 -25 c109 -74 264 -243 468 -513 186
-247 271 -352 338 -422 42 -43 62 -73 68 -100 18 -83 -15 424 -41 637 -46 378
-53 414 -44 218 3 -71 3 -128 1 -128 -3 0 -63 57 -134 128 -70 70 -154 143
-186 162 -33 19 -74 45 -93 58 -19 12 -43 22 -53 22 -10 0 -24 7 -31 15 -16
19 -135 19 -405 0 -241 -18 -298 -18 -290 -5 3 6 27 10 51 10 25 0 87 4 137
10 116 12 391 35 657 55 113 9 216 17 230 19 14 2 48 4 76 5 46 1 52 -2 57
-21z m2337 -40 c0 -32 -9 -58 -21 -58 -10 0 -12 70 -3 95 9 23 24 0 24 -37z
m-920 22 c0 -5 11 -10 24 -10 32 0 41 -16 45 -80 4 -70 35 -137 75 -161 45
-28 107 -25 144 6 l30 26 -5 -75 c-5 -70 -4 -76 20 -100 37 -37 102 -36 185 4
67 31 82 31 82 0 0 -12 -19 -30 -52 -49 -95 -55 -128 -95 -128 -152 0 -62 62
-119 130 -119 18 0 33 -6 36 -15 3 -8 -10 -47 -29 -87 -69 -143 -214 -256
-374 -292 -92 -20 -130 -20 -224 2 -185 45 -341 187 -405 373 -15 44 -19 82
-19 199 1 141 2 147 32 212 69 148 207 280 333 319 37 11 100 11 100 -1z
m-2743 -77 c-20 -2 -52 -2 -70 0 -17 2 0 4 38 4 39 0 53 -2 32 -4z m-139 -10
c-15 -2 -42 -2 -60 0 -18 2 -6 4 27 4 33 0 48 -2 33 -4z m557 -3 c-3 -5 -13
-10 -21 -10 -8 0 -14 5 -14 10 0 6 9 10 21 10 11 0 17 -4 14 -10z m-817 -17
c-10 -2 -28 -2 -40 0 -13 2 -5 4 17 4 22 1 32 -1 23 -4z m2237 -20 c43 -6 161
-87 209 -143 33 -40 34 -26 1 22 -49 72 -23 81 28 10 42 -59 91 -84 155 -81
54 3 53 7 28 -106 -9 -38 -16 -91 -16 -117 0 -65 25 -175 55 -243 26 -60 25
-80 -5 -70 -21 7 -85 -18 -113 -43 -11 -9 -36 -51 -56 -92 -68 -136 -124 -207
-214 -269 -38 -26 -128 -71 -141 -71 -4 0 -6 15 -6 33 0 31 3 35 43 46 119 36
227 135 292 268 20 43 42 86 47 96 16 31 1 31 -16 0 -11 -19 -15 -23 -16 -10
0 33 -17 17 -49 -48 -30 -62 -99 -151 -109 -141 -2 3 9 22 25 43 41 52 85 131
81 143 -2 6 -23 -20 -48 -56 -57 -84 -127 -148 -185 -167 -25 -9 -45 -12 -45
-8 0 5 31 27 69 50 65 38 161 130 161 154 0 6 -21 -10 -47 -35 -59 -57 -139
-108 -170 -108 -36 0 -27 19 20 39 48 21 131 80 124 87 -3 3 -33 -9 -67 -26
-34 -17 -64 -29 -67 -26 -3 2 13 14 35 25 54 28 66 46 24 38 -19 -4 -32 -2
-32 3 0 6 6 10 13 11 6 1 -8 6 -33 13 -33 9 -45 17 -47 31 -1 11 -7 92 -13
180 -7 88 -23 249 -36 358 -13 109 -24 200 -24 203 0 3 12 4 28 2 19 -2 26 1
24 11 -2 10 4 12 25 6 15 -3 46 -9 68 -12z m-2632 -10 c-7 -2 -21 -2 -30 0
-10 3 -4 5 12 5 17 0 24 -2 18 -5z m-1291 -238 c3 -126 11 -291 17 -365 6 -74
14 -169 17 -210 2 -41 9 -115 14 -165 33 -320 42 -426 37 -432 -4 -3 -9 -4
-11 -2 -4 4 -27 156 -51 334 -8 61 -20 134 -27 162 -9 44 -13 50 -23 36 -9
-13 -14 -13 -20 -3 -6 9 -11 6 -21 -11 -10 -19 -13 -20 -14 -6 0 21 -19 22
-27 1 -5 -14 -8 -12 -19 7 -10 19 -13 20 -14 7 0 -20 -11 -23 -27 -7 -8 8 -13
5 -18 -11 -6 -20 -7 -21 -22 -3 -13 16 -14 6 -8 -95 3 -62 13 -150 21 -195 18
-102 18 -117 0 -117 -10 0 -18 22 -25 73 -7 39 -16 99 -21 132 -24 156 -42
446 -43 694 0 226 2 275 17 324 10 32 23 60 29 63 20 7 160 22 197 20 l35 -1
7 -230z m1171 228 c-13 -2 -33 -2 -45 0 -13 2 -3 4 22 4 25 0 35 -2 23 -4z
m-248 -23 c-33 -4 -116 -12 -185 -19 -69 -6 -147 -16 -173 -21 -26 -6 -71 -10
-100 -10 -71 0 -88 -12 -51 -36 83 -51 116 -76 193 -149 108 -103 195 -207
366 -435 76 -102 141 -187 145 -190 3 -3 33 -39 65 -80 67 -84 210 -232 239
-248 59 -30 -33 -50 -332 -68 -56 -4 -105 -11 -108 -15 -7 -11 -4 -11 130 1
340 29 378 32 388 22 14 -14 -16 -19 -252 -38 -305 -24 -400 -28 -400 -15 0 6
6 11 13 12 6 0 -9 6 -35 13 -26 7 -61 11 -78 8 -18 -2 -30 0 -30 7 0 6 -10 11
-22 11 -17 0 -19 -3 -9 -9 10 -7 6 -10 -15 -14 -41 -8 -205 -22 -227 -19 -29
3 -14 -21 19 -31 16 -6 33 -16 37 -23 5 -8 25 -14 49 -14 39 0 40 -1 22 -15
-18 -13 -16 -14 21 -15 22 0 99 4 170 10 278 20 634 40 715 39 92 -1 101 0
-410 -44 -186 -16 -437 -37 -650 -56 -63 -5 -132 -12 -152 -15 -33 -5 -41 -1
-73 30 -20 20 -39 36 -44 36 -5 0 -14 6 -20 13 -22 27 -78 642 -101 1097 -8
180 -8 206 6 216 8 7 61 15 117 18 56 4 194 14 307 23 113 8 250 18 305 23 55
4 127 7 160 7 l60 0 -60 -7z m150 -31 c-98 -12 -279 -26 -284 -22 -19 15 120
30 279 30 l75 0 -70 -8z m4685 -71 c0 -19 4 -20 65 -16 71 6 77 1 45 -39 -25
-32 -26 -53 -2 -53 43 0 55 -23 59 -114 4 -76 2 -87 -14 -93 -10 -4 -34 -16
-53 -28 -62 -38 -261 -72 -450 -76 -87 -2 -140 37 -140 104 0 52 129 157 260
211 25 10 52 22 61 26 9 5 35 14 58 20 31 8 47 20 67 51 25 41 44 44 44 7z
m-270 -74 c0 -8 -4 -14 -10 -14 -5 0 -10 9 -10 21 0 11 5 17 10 14 6 -3 10
-13 10 -21z m-5825 -24 c-10 -11 -23 -20 -29 -20 -6 0 0 9 14 20 32 25 38 25
15 0z m-95 -10 c0 -5 -5 -10 -11 -10 -5 0 -7 5 -4 10 3 6 8 10 11 10 2 0 4 -4
4 -10z m-516 -44 c102 -82 136 -132 136 -204 0 -99 -93 -192 -192 -192 -44 0
-127 40 -176 84 -22 20 -45 36 -51 36 -15 0 -14 11 5 39 16 22 15 24 -15 51
-35 32 -38 42 -16 60 8 7 15 18 15 26 0 22 62 86 97 101 18 7 33 18 33 24 0 6
15 9 34 8 19 -2 38 0 42 4 12 11 45 -3 88 -37z m467 -9 l-23 -22 17 28 c10 15
20 25 23 22 3 -3 -5 -16 -17 -28z m44 -27 c-59 -63 -69 -97 -12 -43 37 35 109
84 115 79 2 -3 -1 -14 -8 -25 -9 -18 -8 -21 10 -21 17 0 20 -7 20 -42 1 -123
20 -484 29 -558 33 -266 33 -268 -19 -237 -36 22 -39 9 -5 -23 14 -13 23 -25
21 -27 -8 -8 -71 29 -103 60 -50 47 -48 27 3 -31 73 -84 44 -66 -78 46 -38 35
-72 62 -75 58 -3 -3 6 -25 21 -50 44 -76 27 -75 -23 1 -42 63 -39 45 6 -38 36
-66 39 -95 8 -69 -45 37 -103 182 -130 325 -36 188 -9 307 111 491 32 48 144
164 160 164 4 0 -19 -27 -51 -60z m-87 -29 c-7 -12 -16 -21 -21 -21 -4 0 0 11
9 25 20 30 31 26 12 -4z m-813 -68 c19 -44 19 -53 0 -53 -19 0 -35 31 -35 70
0 39 15 31 35 -17z m7075 -146 c0 -18 -10 -26 -49 -40 -69 -24 -91 -23 -91 7
0 39 11 44 123 54 12 1 17 -5 17 -21z m130 -28 c0 -7 10 -9 25 -5 22 6 25 3
25 -21 1 -36 23 -65 44 -57 13 5 16 0 16 -25 0 -22 4 -29 14 -25 24 9 27 -12
5 -40 -11 -14 -18 -30 -15 -34 8 -13 -14 -85 -30 -102 -12 -12 -16 -13 -23 -2
-7 12 -14 11 -39 -2 -43 -22 -143 -21 -222 3 -36 11 -92 27 -124 36 -91 26
-133 82 -104 141 19 38 109 84 167 84 25 1 57 7 71 15 15 8 53 14 93 15 51 0
69 4 73 15 7 17 24 20 24 4z m-389 -40 l-10 -24 0 26 c-1 14 2 29 6 33 12 12
14 -9 4 -35z m-6220 -51 c46 -25 56 -56 12 -32 -31 16 -73 19 -73 5 0 -5 11
-11 23 -15 13 -3 38 -18 54 -33 29 -26 32 -36 43 -132 l13 -104 -34 -28 c-24
-21 -45 -29 -74 -29 -22 0 -56 -3 -75 -6 -66 -10 -160 78 -160 150 0 41 23 30
47 -22 12 -26 36 -58 52 -70 36 -26 111 -48 135 -39 16 6 14 11 -13 34 -17 15
-31 32 -31 38 0 14 -83 95 -97 95 -14 0 -33 53 -33 94 -1 29 -1 30 -15 12 -15
-20 -15 -20 -15 1 0 24 23 52 70 81 47 29 119 29 171 0z m-388 -35 c48 -17 58
-29 33 -39 -20 -8 -109 33 -101 46 8 13 12 13 68 -7z m5405 -148 c-6 -14 -13
-24 -14 -22 -6 6 9 47 17 47 5 0 3 -11 -3 -25z m-4988 -230 c89 -46 78 -143
-26 -217 -26 -18 -74 -59 -108 -92 -59 -57 -123 -95 -158 -96 -9 0 -21 -7 -26
-16 -15 -27 -92 -10 -128 27 -27 28 -28 31 -12 43 17 12 17 14 -4 32 -26 23
-68 111 -68 142 0 12 8 26 17 29 10 4 34 24 54 45 20 21 43 38 53 38 9 0 45
12 79 27 34 14 82 32 107 39 64 18 184 17 220 -1z m5800 -12 c0 -20 -114 -250
-163 -328 -162 -262 -298 -437 -492 -631 -173 -173 -298 -278 -480 -399 -463
-308 -945 -480 -1490 -530 -829 -77 -1642 170 -2295 698 -63 51 -116 101 -118
110 -5 24 40 23 62 -2 14 -15 24 -17 51 -11 20 4 35 4 35 -1 0 -5 10 -9 23 -9
13 0 39 -12 58 -26 423 -318 831 -505 1304 -598 225 -44 296 -50 580 -51 283
0 355 6 570 45 689 128 1313 488 1768 1020 124 145 115 134 188 240 84 124
175 274 229 380 23 47 47 91 53 98 5 7 32 12 63 12 45 0 54 -3 54 -17z m-2147
-70 c-7 -2 -21 -2 -30 0 -10 3 -4 5 12 5 17 0 24 -2 18 -5z m-145 -10 c-10 -2
-26 -2 -35 0 -10 3 -2 5 17 5 19 0 27 -2 18 -5z m-209 -12 c18 -12 -24 -17
-234 -31 -88 -6 -216 -15 -285 -20 -118 -8 -141 -7 -128 6 3 3 98 12 209 20
112 8 238 18 279 23 105 12 143 12 159 2z m66 -41 c-28 -12 -105 -12 -105 0 0
6 27 10 63 9 44 0 56 -3 42 -9z m-237 -17 c-16 -2 -40 -2 -55 0 -16 2 -3 4 27
4 30 0 43 -2 28 -4z m-2898 -38 c54 -58 3 -248 -114 -423 -25 -37 -46 -71 -46
-75 0 -4 9 -7 20 -7 30 0 24 -17 -11 -29 -59 -20 -105 -14 -144 20 l-35 31 0
-30 c0 -35 -16 -51 -24 -24 -4 10 -26 28 -50 40 -55 26 -78 61 -47 69 26 7 26
9 -4 61 l-25 44 33 41 c88 114 277 277 320 277 12 0 31 7 41 15 29 22 59 18
86 -10z m3080 4 c-47 -4 -112 -7 -145 -6 l-60 0 65 7 c36 4 101 7 145 7 l80 0
-85 -8z m-3890 -55 c-13 -57 -26 -56 -20 1 2 16 15 34 26 35 1 0 -2 -16 -6
-36z m3538 29 c-16 -2 -40 -2 -55 0 -16 2 -3 4 27 4 30 0 43 -2 28 -4z m-2633
-33 c22 -23 26 -33 17 -42 -15 -15 -62 26 -62 54 0 26 12 22 45 -12z m2534 26
c-8 -8 -98 -10 -105 -3 -4 4 19 7 51 7 32 0 56 -2 54 -4z m-2338 -22 c39 -20
59 -68 70 -164 4 -41 13 -109 18 -150 15 -107 13 -178 -5 -240 -8 -30 -16 -64
-18 -75 -3 -26 -43 -45 -117 -55 -73 -10 -84 -7 -99 31 -15 36 -21 36 -63 -1
-19 -16 -37 -30 -40 -30 -3 0 -8 32 -12 71 l-7 70 -29 -6 c-37 -8 -36 -2 5 39
29 30 35 44 45 117 7 46 29 137 49 202 30 100 42 125 77 163 46 49 74 55 126
28z m996 10 c-3 -3 -12 -4 -19 -1 -8 3 -5 6 6 6 11 1 17 -2 13 -5z m398 -15
c-142 -14 -290 -22 -282 -13 10 10 146 21 267 21 l85 0 -70 -8z m595 -4 c-136
-14 -237 -18 -228 -9 9 8 170 21 268 21 l85 1 -125 -13z m-1618 -122 c20 -19
44 -56 54 -82 9 -25 28 -62 40 -81 38 -57 55 -120 53 -190 0 -36 2 -73 6 -83
10 -25 -20 -55 -69 -69 -23 -6 -48 -19 -58 -29 -20 -23 -38 -25 -38 -4 0 10
-10 15 -30 15 -18 0 -30 5 -30 13 0 21 -47 39 -71 27 -16 -9 -19 -7 -19 13 0
12 -6 29 -12 35 -10 10 -10 14 0 21 11 6 11 17 3 47 -5 21 -9 100 -8 174 2
108 6 143 22 177 32 72 92 78 157 16z m-624 -65 c15 -15 16 -55 2 -63 -16 -10
-40 14 -40 40 0 34 16 45 38 23z m-744 -33 c17 -13 17 -15 3 -21 -23 -8 -47 2
-47 21 0 19 19 19 44 0z m1138 -17 c-9 -9 -15 -9 -24 0 -9 9 -7 12 12 12 19 0
21 -3 12 -12z m-922 -238 c36 -56 34 -76 -4 -40 -34 31 -53 90 -30 90 1 0 16
-23 34 -50z m266 -95 c-22 -17 -76 -20 -76 -6 0 11 24 18 65 20 28 0 29 0 11
-14z"/>
<path d="M4640 7471 c0 -6 4 -13 10 -16 6 -3 7 1 4 9 -7 18 -14 21 -14 7z"/>
<path d="M4701 7325 c0 -11 4 -29 9 -40 l9 -20 0 20 c0 11 -4 29 -9 40 l-9 20
0 -20z"/>
<path d="M4564 6491 c19 -20 79 -36 97 -25 16 9 -10 24 -43 24 -15 0 -30 5
-33 10 -3 6 -13 10 -22 10 -14 0 -14 -2 1 -19z"/>
<path d="M4805 6500 c-11 -5 -33 -11 -49 -15 -18 -4 -25 -10 -19 -16 13 -13
63 -1 93 22 26 20 12 25 -25 9z"/>
<path d="M4690 6341 c0 -11 5 -23 10 -26 6 -3 10 3 10 14 0 11 -4 23 -10 26
-5 3 -10 -3 -10 -14z"/>
<path d="M4108 6313 c6 -2 18 -2 25 0 6 3 1 5 -13 5 -14 0 -19 -2 -12 -5z"/>
<path d="M5030 6330 c0 -5 7 -10 15 -10 8 0 15 5 15 10 0 6 -7 10 -15 10 -8 0
-15 -4 -15 -10z"/>
<path d="M5258 6313 c6 -2 18 -2 25 0 6 3 1 5 -13 5 -14 0 -19 -2 -12 -5z"/>
<path d="M4397 5456 c-3 -8 -23 -17 -44 -19 -28 -3 -23 -4 21 -5 48 -2 56 0
47 11 -6 8 -8 17 -4 20 3 4 2 7 -4 7 -6 0 -13 -6 -16 -14z"/>
<path d="M4970 5445 c-11 -13 -7 -15 26 -14 22 1 31 3 22 6 -10 2 -18 9 -18
14 0 14 -16 11 -30 -6z"/>
<path d="M4907 5300 c-3 -11 -1 -20 4 -20 5 0 9 9 9 20 0 11 -2 20 -4 20 -2 0
-6 -9 -9 -20z"/>
<path d="M4550 5271 c0 -12 6 -21 15 -21 8 0 15 3 15 6 0 3 -7 12 -15 20 -13
14 -15 13 -15 -5z"/>
<path d="M4794 5270 c-5 -5 -38 -11 -74 -13 l-65 -3 77 -2 c42 -1 79 2 83 7 8
13 -10 22 -21 11z"/>
<path d="M4220 5129 c0 -5 5 -7 10 -4 6 3 10 8 10 11 0 2 -4 4 -10 4 -5 0 -10
-5 -10 -11z"/>
<path d="M7482 4813 c-36 -7 -15 -23 31 -23 39 1 41 2 23 15 -11 8 -22 14 -25
14 -3 -1 -16 -4 -29 -6z"/>
<path d="M7474 4555 c11 -8 29 -15 40 -15 19 1 19 2 -4 15 -35 20 -62 19 -36
0z"/>
<path d="M7466 4521 c-14 -6 -10 -10 21 -19 48 -14 53 -15 53 -3 0 14 -52 29
-74 22z"/>
<path d="M7413 4503 c-7 -2 -12 -17 -12 -31 1 -21 2 -23 6 -7 3 11 10 26 15
33 11 13 10 13 -9 5z"/>
<path d="M6636 4611 c-10 -11 -16 -25 -15 -30 2 -6 12 3 21 19 20 35 18 38 -6
11z"/>
<path d="M6694 4598 l-19 -22 29 18 c25 16 34 17 68 7 49 -15 57 -35 27 -68
l-24 -26 38 28 c21 15 36 33 34 39 -5 17 -69 46 -103 46 -19 0 -38 -8 -50 -22z"/>
<path d="M5973 4723 c-23 -2 -46 -10 -52 -16 -6 -8 -5 -43 5 -107 17 -119 37
-207 42 -192 5 16 32 15 33 0 0 -7 5 -2 11 12 9 21 12 22 15 8 6 -23 19 -23
27 -1 6 14 8 14 21 -3 13 -17 14 -17 15 -1 0 9 4 17 9 17 5 0 12 -8 16 -17 6
-17 7 -17 16 -1 5 9 16 15 24 12 12 -5 13 4 9 48 -6 64 -43 218 -57 236 -9 12
-44 13 -134 5z"/>
<path d="M6061 3888 c-1 -21 -27 -24 -34 -5 -8 18 -11 -138 -7 -408 1 -132 6
-247 11 -256 6 -11 28 -19 72 -23 87 -10 112 3 127 63 17 72 26 308 18 475 -8
149 -18 193 -37 145 l-9 -24 -10 25 c-6 14 -11 19 -11 13 -1 -7 -7 -13 -15
-13 -8 0 -17 6 -19 13 -3 6 -6 3 -6 -9 -1 -32 -14 -37 -27 -12 l-13 23 -9 -25
c-10 -25 -10 -25 -25 20 -4 12 -6 11 -6 -2z"/>
<path d="M7970 4615 c47 -47 50 -50 50 -37 0 12 -71 82 -84 82 -5 0 10 -20 34
-45z"/>
<path d="M7900 4622 c0 -16 58 -64 64 -53 4 6 4 16 1 21 -9 14 -65 42 -65 32z"/>
<path d="M7755 4420 c3 -5 16 -15 28 -21 22 -12 22 -12 3 10 -19 21 -43 30
-31 11z"/>
<path d="M7748 4338 c7 -7 12 -26 12 -42 1 -27 2 -28 11 -13 8 14 7 24 -5 43
-9 13 -20 24 -23 24 -4 0 -2 -5 5 -12z"/>
<path d="M6990 4433 c-66 -75 -120 -197 -120 -273 0 -24 1 -23 18 7 9 18 43
78 75 132 59 103 93 181 77 181 -4 0 -27 -21 -50 -47z"/>
<path d="M6940 3829 c0 -25 54 -102 103 -145 162 -143 400 -163 572 -49 53 36
112 92 104 100 -3 2 -41 -14 -84 -35 -72 -36 -122 -54 -86 -31 9 6 -9 7 -47 4
-65 -6 -114 9 -154 49 -27 26 -127 60 -159 53 -18 -4 -37 0 -53 10 -32 21 -34
9 -4 -22 12 -13 17 -23 11 -23 -12 0 -97 60 -101 72 -2 4 -8 8 -14 8 -5 0 5
-18 22 -40 18 -23 30 -43 27 -46 -2 -3 -30 18 -61 47 -31 28 -56 47 -56 43 0
-5 -5 -2 -10 6 -9 13 -10 13 -10 -1z"/>
<path d="M2300 4432 c-35 -2 -69 -7 -76 -13 -10 -8 -28 -150 -27 -219 0 -50
14 -104 23 -90 7 11 12 11 23 2 12 -10 16 -8 21 10 7 22 8 22 15 3 8 -19 8
-19 19 0 11 20 11 20 26 0 l15 -20 1 20 c1 19 1 19 14 3 16 -22 26 -23 26 -3
0 18 20 20 21 3 0 -7 4 -4 9 7 11 25 13 266 2 281 -10 16 -38 20 -112 16z"/>
<path d="M2511 4093 c0 -72 4 -200 9 -285 13 -187 58 -557 72 -578 6 -10 8 4
4 43 -2 32 0 99 5 149 5 54 6 94 0 97 -5 3 -12 62 -16 131 -4 69 -13 172 -21
229 -7 58 -11 108 -8 112 3 5 -2 22 -11 38 -8 17 -19 67 -24 113 l-8 83 -2
-132z"/>
<path d="M2572 3960 c0 -14 2 -19 5 -12 2 6 2 18 0 25 -3 6 -5 1 -5 -13z"/>
<path d="M2590 3950 c0 -5 5 -10 11 -10 5 0 7 5 4 10 -3 6 -8 10 -11 10 -2 0
-4 -4 -4 -10z"/>
<path d="M2630 3900 c-8 -5 -12 -11 -9 -14 2 -3 11 -1 19 4 8 5 12 11 9 14 -2
3 -11 1 -19 -4z"/>
<path d="M2674 3854 c9 -8 16 -20 16 -25 0 -5 5 -9 10 -9 6 0 3 11 -6 25 -9
14 -21 25 -26 25 -5 0 -2 -7 6 -16z"/>
<path d="M2630 3836 c0 -8 5 -18 10 -21 6 -3 10 1 10 9 0 8 -4 18 -10 21 -5 3
-10 -1 -10 -9z"/>
<path d="M2602 3780 c0 -14 2 -19 5 -12 2 6 2 18 0 25 -3 6 -5 1 -5 -13z"/>
<path d="M2690 3760 c8 -5 20 -10 25 -10 6 0 3 5 -5 10 -8 5 -19 10 -25 10 -5
0 -3 -5 5 -10z"/>
<path d="M2762 3720 c0 -19 2 -27 5 -17 2 9 2 25 0 35 -3 9 -5 1 -5 -18z"/>
<path d="M2790 3701 c0 -5 7 -12 16 -15 14 -5 15 -4 4 9 -14 17 -20 19 -20 6z"/>
<path d="M2876 3577 c3 -10 9 -15 12 -12 3 3 0 11 -7 18 -10 9 -11 8 -5 -6z"/>
<path d="M2630 3571 c0 -6 5 -13 10 -16 6 -3 10 1 10 9 0 9 -4 16 -10 16 -5 0
-10 -4 -10 -9z"/>
<path d="M2924 3516 c1 -25 10 -34 20 -18 2 4 -2 15 -9 25 -12 17 -13 16 -11
-7z"/>
<path d="M2960 3472 c0 -12 19 -26 26 -19 2 2 -2 10 -11 17 -9 8 -15 8 -15 2z"/>
<path d="M2920 3448 c0 -18 18 -34 28 -24 3 4 -2 14 -11 23 -16 16 -17 16 -17
1z"/>
<path d="M2616 3434 c-8 -22 -7 -52 2 -58 4 -2 9 13 9 35 2 42 -1 49 -11 23z"/>
<path d="M3053 3343 c-15 -6 -17 -33 -3 -33 6 0 10 6 10 14 0 8 6 17 13 19 6
3 8 5 2 5 -5 0 -16 -2 -22 -5z"/>
<path d="M2670 3333 c1 -13 60 -67 66 -61 3 4 -9 20 -27 37 -33 32 -39 36 -39
24z"/>
<path d="M3160 3242 c0 -13 41 -54 48 -47 3 3 -6 17 -21 31 -15 14 -27 21 -27
16z"/>
<path d="M3115 3229 c-11 -17 1 -21 15 -4 8 9 8 15 2 15 -6 0 -14 -5 -17 -11z"/>
<path d="M2602 3180 c0 -14 2 -19 5 -12 2 6 2 18 0 25 -3 6 -5 1 -5 -13z"/>
<path d="M8210 4198 c0 -2 9 -29 19 -62 12 -38 20 -53 24 -42 4 9 4 24 1 34
-16 49 -27 72 -35 72 -5 0 -9 -1 -9 -2z"/>
<path d="M7885 4095 c4 -11 9 -37 12 -57 3 -21 9 -35 14 -32 16 10 9 62 -12
85 -18 21 -20 21 -14 4z"/>
<path d="M7948 4063 c5 -21 7 -23 10 -9 2 10 0 22 -6 28 -6 6 -7 0 -4 -19z"/>
<path d="M1362 4117 c-12 -13 -22 -27 -22 -33 0 -5 11 4 25 20 14 16 25 31 25
33 0 7 -8 2 -28 -20z"/>
<path d="M1386 4066 c-9 -14 -16 -38 -16 -53 1 -31 49 -108 68 -108 7 0 26 25
43 55 l30 55 -39 -44 -39 -44 -21 31 c-24 33 -29 91 -10 110 6 6 9 14 6 17 -3
3 -13 -6 -22 -19z"/>
<path d="M7990 3771 c33 -6 35 -9 41 -51 l6 -45 1 46 c2 51 -7 60 -56 58 -23
-1 -21 -3 8 -8z"/>
<path d="M8302 3710 c0 -19 2 -27 5 -17 2 9 2 25 0 35 -3 9 -5 1 -5 -18z"/>
<path d="M8332 3710 c0 -19 2 -27 5 -17 2 9 2 25 0 35 -3 9 -5 1 -5 -18z"/>
<path d="M7995 3660 c-3 -5 1 -10 9 -10 9 0 16 5 16 10 0 6 -4 10 -9 10 -6 0
-13 -4 -16 -10z"/>
<path d="M1632 3350 c-19 -31 -15 -87 9 -111 30 -30 34 -16 9 29 -26 47 -23
72 10 89 22 11 23 13 5 13 -11 0 -26 -9 -33 -20z"/>
<path d="M1581 3283 c0 -12 10 -35 24 -50 13 -15 25 -23 25 -17 0 5 -9 19 -19
31 -10 11 -21 29 -24 39 -4 17 -5 16 -6 -3z"/>
<path d="M1330 3216 c0 -7 3 -28 6 -45 6 -28 8 -29 19 -14 9 12 10 25 3 45
-10 29 -28 38 -28 14z"/>
<path d="M1370 3150 c0 -5 5 -10 11 -10 5 0 7 5 4 10 -3 6 -8 10 -11 10 -2 0
-4 -4 -4 -10z"/>
<path d="M1932 3041 c-7 -4 -25 -6 -40 -4 -21 4 -24 2 -12 -6 20 -14 33 -14
56 4 20 15 18 20 -4 6z"/>
<path d="M1786 3006 c3 -8 13 -17 22 -21 13 -5 13 -2 -3 15 -21 24 -26 25 -19
6z"/>
<path d="M1610 2822 c0 -11 49 -62 60 -62 23 0 17 20 -14 44 -36 27 -46 31
-46 18z"/>
<path d="M1580 2784 c0 -9 41 -42 73 -60 54 -29 49 -8 -7 29 -56 37 -66 42
-66 31z"/>
<path d="M2244 2959 c-4 -7 -27 -10 -60 -7 -57 5 -71 -6 -28 -22 32 -12 67 -4
90 21 9 10 14 19 11 19 -3 0 -9 -5 -13 -11z"/>
<path d="M2147 2900 c13 -13 56 -23 49 -12 -3 5 -17 12 -32 15 -14 2 -22 1
-17 -3z"/>
<path d="M2107 2590 c16 -17 108 -26 117 -11 4 7 0 11 -12 11 -11 0 -41 3 -68
6 -39 5 -47 4 -37 -6z"/>
<path d="M2486 2920 c6 -36 20 -58 29 -49 3 3 -4 23 -15 45 l-21 39 7 -35z"/>
<path d="M2607 2927 c-5 -17 -19 -32 -40 -41 -23 -11 -27 -15 -12 -15 33 -1
67 32 63 60 -3 24 -4 24 -11 -4z"/>
<path d="M2665 2631 c-3 -5 -19 -12 -35 -16 -30 -7 -42 -24 -17 -26 6 -1 1 -5
-13 -9 -22 -7 -21 -8 12 -9 36 -1 60 13 36 22 -9 3 -4 11 12 25 14 12 22 21
18 22 -4 0 -9 -4 -13 -9z"/>
<path d="M3475 8655 c-23 -7 -39 -18 -39 -26 3 -19 63 -250 68 -258 4 -5 30
-92 83 -273 6 -21 -13 -24 -31 -5 -32 33 -66 86 -66 104 0 10 -14 32 -31 49
-17 16 -39 46 -49 67 -10 23 -21 34 -25 28 -3 -6 -11 -9 -16 -5 -21 13 -169
206 -169 220 0 18 -4 18 -68 -1 -49 -15 -63 -27 -43 -39 4 -3 11 -23 15 -44 6
-39 22 -99 56 -207 37 -117 133 -450 135 -470 1 -11 6 -19 11 -18 5 1 25 5 44
8 56 11 71 22 61 48 -5 12 -19 58 -31 102 -12 44 -39 139 -60 210 -21 72 -41
147 -44 168 -7 37 -6 38 14 27 12 -6 26 -23 33 -38 6 -15 30 -46 53 -69 48
-47 84 -110 84 -148 0 -14 5 -25 10 -25 6 0 10 5 10 11 0 25 32 -2 99 -83 40
-49 69 -92 66 -98 -8 -13 30 -13 78 1 20 5 37 16 37 23 0 7 -24 98 -54 202
-30 104 -73 254 -96 334 -23 80 -49 158 -57 173 -7 15 -11 32 -8 37 8 13 -20
11 -70 -5z"/>
<path d="M5889 8638 c0 -2 -2 -10 -4 -18 -2 -8 -20 -60 -41 -115 -47 -128
-105 -290 -153 -430 -21 -60 -45 -127 -54 -147 -14 -33 -14 -37 1 -43 9 -4 73
-27 142 -51 69 -25 154 -56 189 -69 36 -14 67 -22 70 -20 3 3 0 26 -7 50 -22
84 -10 179 38 280 16 33 28 61 26 62 -1 2 -26 -18 -56 -43 -29 -25 -66 -48
-81 -51 l-29 -5 22 -30 c25 -36 34 -111 19 -151 -18 -46 -52 -52 -142 -22 -44
15 -79 32 -79 39 0 7 24 80 54 162 30 82 65 181 78 219 21 64 27 72 68 93 l44
22 -32 0 c-18 0 -32 4 -32 9 0 14 62 185 71 195 4 4 38 -2 76 -14 83 -28 138
-77 128 -112 -10 -32 -55 -78 -76 -78 -24 0 -32 -15 -15 -29 7 -6 19 -46 27
-89 11 -65 14 -72 20 -47 4 17 7 48 8 70 1 42 53 143 99 192 13 14 20 29 15
33 -19 18 -391 147 -394 138z"/>
<path d="M6023 8342 c15 -9 27 -20 27 -24 0 -3 7 -14 16 -23 15 -15 15 -17 0
-34 -23 -25 -20 -41 8 -41 19 0 24 6 29 36 8 46 -3 67 -47 88 -45 21 -69 20
-33 -2z"/>
<path d="M5922 8205 c-16 -54 -16 -73 0 -57 7 7 29 12 50 12 25 0 45 7 59 21
25 25 17 39 -9 16 -35 -31 -74 -18 -84 28 -3 15 -7 10 -16 -20z"/>
<path d="M6847 8163 c4 -31 -19 -200 -73 -533 -7 -42 -78 -186 -110 -221 -16
-18 -19 -39 -4 -39 6 0 28 -11 50 -25 22 -14 43 -25 47 -24 5 0 31 45 58 101
46 92 58 107 155 196 58 54 132 123 165 154 77 73 143 123 186 141 30 13 32
15 14 22 -65 23 -82 32 -112 58 l-33 29 0 -38 c0 -36 -8 -46 -98 -134 -130
-126 -202 -190 -214 -190 -12 0 -3 100 17 180 7 30 21 89 30 130 20 91 28 106
67 130 l31 18 -44 13 c-24 7 -61 25 -81 41 -48 37 -57 35 -51 -9z"/>
<path d="M1290 7320 c0 -5 5 -10 10 -10 6 0 10 5 10 10 0 6 -4 10 -10 10 -5 0
-10 -4 -10 -10z"/>
<path d="M1187 7303 c-14 -13 -6 -22 46 -53 28 -18 62 -41 73 -52 18 -16 22
-17 27 -4 5 14 -10 27 -85 72 -10 6 -26 18 -36 27 -10 10 -22 14 -25 10z"/>
<path d="M7945 7294 c-22 -7 -41 -14 -42 -14 -12 -1 2 -31 21 -49 l25 -23 40
23 c23 12 41 26 41 29 0 4 -10 16 -22 27 -21 20 -26 20 -63 7z"/>
<path d="M1130 7217 c0 -8 11 -19 25 -25 14 -7 28 -19 31 -27 4 -8 13 -15 21
-15 8 0 28 -9 43 -20 21 -15 31 -17 36 -8 4 6 3 13 -3 15 -6 2 -40 24 -77 48
-74 50 -76 51 -76 32z"/>
<path d="M1066 7115 c-3 -8 0 -15 7 -15 7 0 43 -20 80 -45 45 -31 67 -41 67
-31 0 8 -13 23 -30 33 -16 9 -30 21 -30 25 0 4 -6 8 -12 8 -7 0 -24 9 -38 20
-30 24 -36 24 -44 5z"/>
<path d="M996 7013 c-9 -10 -7 -23 4 -23 6 0 39 -20 74 -45 70 -49 76 -51 75
-32 0 14 -145 108 -153 100z"/>
<path d="M7944 6981 c-50 -23 -93 -75 -111 -133 -10 -34 -10 -71 -2 -174 8
-95 8 -142 0 -172 -33 -122 -191 -184 -272 -106 -67 64 -57 168 23 243 40 37
61 41 28 6 -18 -20 -21 -28 -12 -37 7 -7 12 -26 12 -43 0 -21 11 -43 34 -70
l34 -38 16 31 16 32 -29 -6 c-22 -5 -32 -1 -45 17 -9 13 -16 30 -16 37 0 24
41 72 73 87 l32 13 -38 1 c-23 1 -36 5 -32 11 11 18 69 10 113 -15 23 -13 42
-20 42 -16 0 15 -46 49 -80 59 -36 10 -126 9 -137 -2 -12 -12 -33 -6 -33 10 0
25 -19 6 -47 -49 -22 -42 -27 -66 -28 -123 0 -61 4 -77 30 -120 19 -30 49 -60
79 -79 44 -26 58 -30 125 -30 68 0 80 3 117 29 88 64 108 129 99 324 -7 154 2
197 52 248 39 40 73 44 119 12 60 -41 80 -101 48 -146 -16 -23 -83 -62 -107
-62 -11 0 -16 -18 -19 -67 -3 -38 -4 -69 -3 -71 1 -1 15 18 31 44 35 55 71 84
144 114 30 13 59 27 64 31 12 10 -151 185 -191 204 -52 25 -85 27 -129 6z"/>
<path d="M8901 5594 c0 -11 3 -14 6 -6 3 7 2 16 -1 19 -3 4 -6 -2 -5 -13z"/>
<path d="M292 5310 c0 -14 2 -19 5 -12 2 6 2 18 0 25 -3 6 -5 1 -5 -13z"/>
<path d="M272 5165 c0 -16 2 -22 5 -12 2 9 2 23 0 30 -3 6 -5 -1 -5 -18z"/>
<path d="M262 5080 c0 -14 2 -19 5 -12 2 6 2 18 0 25 -3 6 -5 1 -5 -13z"/>
<path d="M8993 4980 c0 -30 2 -43 4 -27 2 15 2 39 0 55 -2 15 -4 2 -4 -28z"/>
<path d="M9002 4670 c-1 -129 -4 -273 -7 -320 l-4 -85 10 85 c5 46 8 190 6
320 l-2 235 -3 -235z"/>
<path d="M244 4715 c0 -55 1 -76 3 -47 2 29 2 74 0 100 -2 26 -3 2 -3 -53z"/>
<path d="M241 4564 c0 -11 3 -14 6 -6 3 7 2 16 -1 19 -3 4 -6 -2 -5 -13z"/>
<path d="M241 4494 c0 -11 3 -14 6 -6 3 7 2 16 -1 19 -3 4 -6 -2 -5 -13z"/>
<path d="M263 4225 c0 -22 2 -30 4 -17 2 12 2 30 0 40 -3 9 -5 -1 -4 -23z"/>
<path d="M272 4115 c0 -16 2 -22 5 -12 2 9 2 23 0 30 -3 6 -5 -1 -5 -18z"/>
<path d="M8972 4115 c0 -16 2 -22 5 -12 2 9 2 23 0 30 -3 6 -5 -1 -5 -18z"/>
<path d="M8962 4030 c0 -14 2 -19 5 -12 2 6 2 18 0 25 -3 6 -5 1 -5 -13z"/>
<path d="M8901 3694 c0 -11 3 -14 6 -6 3 7 2 16 -1 19 -3 4 -6 -2 -5 -13z"/>
<path d="M1922 1879 c-123 -155 -225 -286 -228 -292 -2 -7 24 -33 58 -59 35
-27 100 -76 145 -111 118 -91 206 -117 273 -82 44 23 117 118 125 162 4 24 0
54 -10 82 -8 24 -15 45 -15 47 0 2 25 4 55 4 49 0 59 4 96 37 44 40 79 100 79
135 0 28 -32 95 -57 123 -22 24 -82 77 -143 125 -24 19 -64 52 -89 73 -25 20
-50 37 -56 37 -5 0 -110 -127 -233 -281z m345 75 c52 -40 73 -66 73 -92 0 -54
-58 -122 -105 -122 -33 0 -123 52 -132 76 -6 17 105 164 124 164 3 0 21 -12
40 -26z m-174 -257 c48 -37 70 -79 62 -117 -4 -16 -28 -52 -55 -81 -43 -46
-52 -51 -77 -45 -33 9 -133 82 -133 98 0 11 98 145 128 175 15 15 20 13 75
-30z"/>
<path d="M7235 2148 c-16 -6 -49 -24 -72 -40 -52 -35 -265 -238 -261 -248 2
-4 95 -103 208 -220 113 -117 225 -235 250 -261 25 -27 50 -49 56 -49 5 0 34
24 63 54 l54 55 -102 107 c-55 60 -101 111 -101 114 0 10 15 26 59 63 69 57
84 53 197 -54 l95 -91 58 53 c64 59 71 74 41 84 -10 3 -47 37 -81 75 -75 84
-113 105 -180 96 l-49 -7 6 54 c7 61 -4 90 -58 149 -64 70 -117 89 -183 66z
m56 -175 c50 -45 73 -87 64 -120 -7 -28 -82 -113 -100 -113 -16 0 -155 154
-155 172 0 15 53 69 85 86 35 20 64 13 106 -25z"/>
<path d="M6337 1522 c-193 -77 -217 -89 -213 -107 4 -20 265 -667 272 -674 4
-4 99 33 417 163 15 6 27 14 27 17 0 18 -32 79 -40 79 -6 0 -66 -22 -133 -50
-67 -27 -129 -50 -139 -50 -19 0 -94 179 -85 202 3 8 50 32 106 54 56 21 101
44 101 50 0 6 -5 26 -11 43 -10 30 -15 32 -41 27 -16 -3 -44 -12 -61 -20 -89
-38 -132 -54 -141 -50 -15 6 -78 169 -74 190 2 11 46 33 128 65 68 27 128 53
133 58 9 9 -8 77 -21 85 -4 2 -105 -35 -225 -82z"/>
<path d="M3074 1472 c-6 -4 -75 -92 -154 -197 -79 -104 -179 -236 -222 -292
-43 -57 -78 -106 -78 -110 0 -5 30 -20 66 -35 l66 -28 19 23 c11 12 27 34 36
49 9 15 22 29 28 32 14 5 181 -66 200 -85 12 -12 12 -23 1 -70 -8 -31 -11 -61
-7 -66 9 -14 140 -67 147 -60 4 4 13 44 21 89 16 93 25 145 46 268 58 321 67
384 60 391 -7 7 -209 99 -216 99 -1 0 -7 -4 -13 -8z m56 -189 c0 -10 -9 -67
-20 -128 -12 -60 -24 -132 -29 -158 -4 -27 -13 -53 -18 -58 -14 -14 -147 44
-151 65 -2 8 30 60 70 115 40 55 86 119 101 141 30 43 47 51 47 23z"/>
<path d="M5230 1183 c-80 -7 -151 -16 -157 -18 -17 -6 -16 -52 2 -205 12 -109
34 -313 51 -477 3 -29 9 -55 14 -58 12 -7 215 13 314 32 172 32 222 96 197
252 -12 73 -42 113 -98 132 -18 6 -33 14 -33 18 0 4 16 22 35 41 40 39 50 77
40 156 -9 75 -49 116 -130 132 -32 7 -65 11 -74 11 -9 -1 -81 -8 -161 -16z
m177 -106 c20 -20 34 -97 24 -132 -10 -40 -63 -66 -126 -63 l-50 3 -11 90 c-7
55 -7 95 -2 102 20 25 140 25 165 0z m54 -317 c18 -21 34 -137 24 -170 -9 -29
-35 -39 -119 -46 l-74 -7 -7 65 c-4 36 -8 90 -9 119 l-1 54 40 7 c63 10 128 1
146 -22z"/>
<path d="M3867 1059 c-4 -67 -7 -234 -7 -370 l0 -249 23 -5 c13 -4 50 -5 82
-3 l60 3 5 150 5 150 57 3 c66 3 115 -17 122 -51 3 -12 7 -69 8 -127 2 -58 7
-111 11 -117 6 -9 35 -13 86 -13 l78 0 -5 133 c-5 144 -13 172 -62 207 -37 27
-37 34 -1 56 15 9 35 28 44 43 35 60 29 201 -11 244 -9 11 -35 29 -57 40 -36
20 -59 22 -236 25 l-196 4 -6 -123z m338 1 c11 -9 15 -34 15 -95 0 -70 -3 -85
-20 -100 -26 -23 -133 -34 -155 -15 -16 14 -19 67 -9 168 l7 61 41 3 c50 4
101 -6 121 -22z"/>
<path d="M5123 293 c9 -2 23 -2 30 0 6 3 -1 5 -18 5 -16 0 -22 -2 -12 -5z"/>
<path d="M4573 263 c37 -2 96 -2 130 0 34 2 4 3 -68 3 -71 0 -99 -1 -62 -3z"/>
</g>
</svg>
