<?xml version="1.0" standalone="no"?>
<!DOCTYPE svg PUBLIC "-//W3C//DTD SVG 20010904//EN"
 "http://www.w3.org/TR/2001/REC-SVG-20010904/DTD/svg10.dtd">
<svg version="1.0" xmlns="http://www.w3.org/2000/svg"
 width="554.000000pt" height="451.000000pt" viewBox="0 0 554.000000 451.000000"
 preserveAspectRatio="xMidYMid meet">

<g transform="translate(0.000000,451.000000) scale(0.100000,-0.100000)"
fill="#000000" stroke="none">
<path d="M1528 4253 c7 -3 16 -2 19 1 4 3 -2 6 -13 5 -11 0 -14 -3 -6 -6z"/>
<path d="M1445 4223 c-27 -14 -74 -34 -104 -44 -68 -24 -81 -35 -81 -69 0 -40
22 -54 73 -46 35 5 46 3 61 -13 39 -43 100 -35 391 53 197 60 215 73 34 26
-345 -91 -358 -94 -386 -84 -45 16 -36 28 39 49 83 23 100 42 78 83 -12 20
-26 28 -55 33 l-40 5 28 12 c15 6 27 14 27 17 0 9 -14 4 -65 -22z"/>
<path d="M1978 4163 c7 -3 16 -2 19 1 4 3 -2 6 -13 5 -11 0 -14 -3 -6 -6z"/>
<path d="M360 4110 c0 -5 5 -10 11 -10 5 0 7 5 4 10 -3 6 -8 10 -11 10 -2 0
-4 -4 -4 -10z"/>
<path d="M403 4108 c2 -7 8 -24 12 -38 l7 -25 -27 25 c-25 22 -27 23 -22 5 5
-14 0 -11 -18 10 -18 21 -24 24 -19 10 4 -11 14 -28 22 -37 23 -27 -6 -23 -35
4 -13 12 -23 17 -23 11 0 -6 7 -16 15 -23 37 -31 2 -41 -43 -13 l-27 17 19
-22 c24 -28 13 -28 -33 0 -27 17 -33 18 -22 5 15 -19 1 -23 -17 -5 -7 7 -12 9
-12 5 0 -4 15 -17 33 -28 l32 -21 -30 6 c-27 6 -28 5 -12 -8 18 -14 18 -14 0
-19 -10 -3 -3 -5 16 -6 25 -1 43 -11 73 -43 35 -37 36 -38 9 -5 -17 21 -31 44
-31 51 0 14 78 56 105 56 11 0 15 -11 15 -42 0 -38 29 -108 45 -108 4 0 -1 10
-9 22 -24 34 -21 95 4 103 12 4 27 2 35 -5 10 -8 14 -8 18 2 8 23 15 4 10 -24
-3 -17 -10 -25 -17 -21 -6 4 -5 -1 3 -10 21 -26 59 -22 73 8 13 28 55 35 64
11 8 -20 -24 -71 -52 -86 -12 -7 -42 -11 -67 -9 -26 3 -42 0 -37 -5 15 -15 90
-8 123 11 21 13 37 34 49 65 l17 46 -24 16 c-13 9 -29 16 -35 16 -5 0 -11 10
-11 23 -1 16 -2 18 -6 5 -6 -23 -14 -23 -58 2 -19 11 -35 17 -35 14 0 -4 -7
-1 -15 6 -17 14 -20 40 -6 40 5 0 12 -8 14 -17 4 -14 5 -14 6 3 1 16 -6 23
-24 26 -29 6 -28 7 -15 -26 5 -14 6 -26 1 -26 -5 0 -14 14 -20 30 -5 17 -13
30 -17 30 -3 0 -4 -6 -1 -12z"/>
<path d="M2071 4095 c1 -19 18 -51 18 -35 0 8 -4 22 -9 30 -5 8 -9 11 -9 5z"/>
<path d="M1245 3953 c-38 -20 -77 -39 -85 -43 -41 -20 -5 -120 43 -120 12 0
40 -7 62 -14 l40 -14 -26 -10 c-38 -15 -55 -79 -26 -101 6 -6 28 -23 47 -39
64 -53 97 -64 207 -70 87 -4 103 -7 98 -20 -3 -8 -3 -30 1 -48 6 -31 10 -34
39 -34 24 0 35 -5 39 -18 18 -56 152 -71 453 -51 235 16 298 17 398 7 l70 -7
-75 15 c-55 11 -111 14 -205 9 -71 -3 -227 -8 -345 -11 -195 -5 -218 -4 -249
13 -55 29 -50 40 23 48 85 9 99 20 98 76 l-1 45 87 12 c150 22 248 40 220 41
-15 1 -107 -11 -205 -25 -134 -20 -223 -26 -358 -28 -170 -1 -183 0 -227 22
-61 30 -63 52 -5 53 68 1 138 15 148 30 14 23 10 55 -11 82 l-20 25 67 7 c233
21 390 48 238 39 l-70 -4 115 30 c63 17 140 33 170 35 30 3 71 10 90 15 96 26
-136 -6 -325 -45 -248 -51 -368 -68 -450 -63 l-60 3 90 29 c102 32 125 48 125
86 0 54 -57 73 -152 51 -45 -11 -48 -7 -10 13 58 32 3 14 -63 -21z"/>
<path d="M734 3936 c30 -45 33 -81 9 -95 -14 -8 -10 -10 23 -11 22 0 43 3 47
6 8 8 -42 81 -78 114 l-27 25 26 -39z"/>
<path d="M1868 3833 c7 -3 16 -2 19 1 4 3 -2 6 -13 5 -11 0 -14 -3 -6 -6z"/>
<path d="M957 3144 c-16 -9 -27 -17 -25 -19 9 -7 92 12 96 23 5 17 -36 15 -71
-4z"/>
<path d="M1160 3150 c0 -5 11 -12 25 -15 14 -3 36 -7 50 -10 33 -7 32 1 -5 20
-33 17 -70 20 -70 5z"/>
<path d="M91 2974 c0 -11 3 -14 6 -6 3 7 2 16 -1 19 -3 4 -6 -2 -5 -13z"/>
<path d="M101 2934 c0 -11 3 -14 6 -6 3 7 2 16 -1 19 -3 4 -6 -2 -5 -13z"/>
<path d="M945 2908 c-35 -19 -115 -101 -175 -179 -32 -41 -70 -83 -83 -92
l-25 -16 41 -48 c178 -203 222 -229 402 -227 163 1 216 29 346 184 35 41 67
77 72 79 4 1 -9 19 -30 40 -21 20 -68 75 -105 122 -102 132 -196 181 -243 129
-10 -11 -30 -20 -45 -20 -15 0 -39 9 -53 20 -28 22 -71 26 -102 8z m285 -214
c52 -21 51 -39 -4 -53 -87 -21 -296 -7 -296 20 0 17 51 41 102 49 68 11 147 4
198 -16z"/>
<path d="M115 2885 c11 -61 106 -233 192 -350 194 -261 428 -489 578 -563 115
-57 240 -65 359 -23 49 17 196 104 196 116 0 2 -31 -15 -68 -39 -95 -62 -172
-86 -275 -86 -178 0 -297 72 -544 330 -209 218 -362 435 -428 605 -12 32 -14
34 -10 10z"/>
<path d="M1876 2710 c-118 -109 -303 -507 -395 -850 -61 -227 -75 -319 -75
-495 -1 -162 1 -173 26 -238 15 -37 34 -78 43 -90 26 -37 17 -69 -55 -189
-125 -210 -296 -432 -385 -501 -138 -106 -231 -114 -276 -25 -50 98 2 410 132
799 22 63 39 123 39 134 0 10 18 62 40 116 39 99 42 122 13 133 -21 9 -28 3
-70 -67 -84 -139 -332 -458 -409 -525 -86 -77 -149 -74 -146 5 2 55 53 245
116 437 62 186 108 397 109 496 1 49 -4 75 -21 107 -35 68 -114 117 -197 125
-39 3 -40 2 -43 -32 l-3 -36 69 4 c51 3 79 0 104 -12 84 -40 80 -115 -32 -504
-21 -76 -57 -204 -79 -286 -22 -82 -45 -154 -51 -160 -5 -5 -10 -45 -10 -87 0
-74 1 -79 34 -113 19 -21 43 -36 56 -36 37 0 107 40 171 98 45 41 207 225 256
291 2 3 7 0 12 -5 5 -5 -5 -59 -25 -129 -69 -247 -97 -406 -98 -565 -1 -130 1
-150 21 -193 12 -26 28 -54 36 -61 20 -20 79 -49 107 -52 69 -8 242 122 358
269 67 85 179 253 242 365 29 50 58 92 65 92 7 0 34 -10 61 -22 37 -16 68 -22
129 -22 92 0 155 19 240 69 32 19 61 35 66 35 5 0 17 -17 28 -38 10 -20 31
-48 46 -62 24 -22 35 -25 103 -25 70 0 85 4 164 43 48 23 92 42 98 42 5 0 10
-11 10 -24 0 -27 24 -51 42 -43 7 3 91 71 187 151 96 80 178 146 183 146 13 0
10 -21 -12 -78 -31 -82 -24 -146 19 -179 26 -20 57 -15 122 17 60 31 79 32 79
4 0 -28 47 -64 84 -64 52 0 195 100 326 229 90 88 89 60 -3 -92 -193 -316
-400 -712 -395 -754 2 -20 9 -28 22 -28 13 0 24 16 40 60 12 33 38 89 57 125
127 235 480 817 778 1284 55 87 101 165 101 172 0 7 -10 20 -22 28 -21 15 -23
14 -42 -17 -123 -202 -536 -707 -578 -707 -5 0 -24 11 -41 24 -81 60 -128 45
-255 -83 -101 -102 -208 -170 -245 -155 -18 7 -23 34 -8 50 14 14 71 167 71
190 0 11 -8 28 -17 36 -38 33 -58 28 -169 -43 -59 -38 -111 -69 -116 -69 -11
0 -10 15 4 45 13 29 -2 75 -26 75 -18 0 -49 -43 -67 -92 -20 -58 -73 -101
-211 -172 -124 -64 -130 -66 -202 -66 -70 0 -77 2 -92 25 -14 22 -15 32 -5 64
6 21 17 43 24 49 6 6 50 20 96 32 47 12 96 27 110 35 34 17 85 72 105 112 44
87 -14 168 -96 135 -38 -16 -184 -141 -221 -189 -51 -68 -139 -135 -246 -186
-72 -35 -95 -41 -167 -45 -102 -5 -134 1 -134 28 0 11 22 62 49 113 139 264
348 817 387 1022 8 44 24 122 35 173 12 61 19 132 19 210 0 102 -3 123 -24
168 -44 95 -99 109 -170 44z m138 -200 l0 -185 -48 -180 c-26 -99 -55 -202
-63 -230 -20 -63 -160 -417 -203 -510 -149 -326 -166 -357 -189 -353 -23 4
-47 86 -60 199 -9 81 -8 115 9 229 29 194 36 225 97 420 96 308 178 492 300
677 61 94 96 125 132 121 l26 -3 -1 -185z m380 -1218 c9 -15 -23 -50 -89 -98
-61 -43 -85 -49 -85 -20 0 15 137 126 156 126 7 0 15 -4 18 -8z m1020 -128 c9
-3 16 -17 16 -30 0 -18 -20 -39 -77 -85 -115 -91 -152 -114 -164 -102 -16 16
-3 46 44 105 43 56 61 72 111 101 33 18 46 20 70 11z"/>
<path d="M3570 2653 c-33 -22 -40 -33 -40 -65 0 -45 11 -58 81 -104 40 -25 70
-51 70 -61 4 -62 -17 -77 -98 -69 -72 7 -85 -7 -23 -24 149 -40 222 108 87
176 -53 27 -85 63 -79 87 9 39 23 47 78 47 55 0 72 13 32 24 -41 11 -83 6
-108 -11z"/>
<path d="M4079 2651 c-36 -28 -40 -52 -19 -99 16 -36 17 -42 4 -53 -22 -18
-44 -64 -44 -91 0 -36 27 -66 70 -79 33 -10 44 -9 79 8 35 17 42 18 54 5 8 -7
22 -12 32 -10 15 3 15 6 -4 30 -19 23 -20 32 -11 70 13 58 13 58 -10 58 -16 0
-20 -7 -20 -30 0 -16 -4 -30 -9 -30 -10 0 -71 73 -71 86 0 4 12 20 27 36 27
28 36 79 17 98 -21 21 -69 22 -95 1z m65 -17 c22 -22 20 -38 -9 -71 -24 -27
-25 -28 -40 -9 -20 27 -19 73 3 85 23 14 28 14 46 -5z m3 -196 c40 -49 42 -53
26 -70 -19 -22 -70 -23 -97 -3 -26 20 -26 77 -1 105 10 11 21 20 24 19 3 0 25
-23 48 -51z"/>
<path d="M4635 2658 c-31 -18 -44 -40 -44 -73 0 -38 20 -62 92 -108 51 -33 57
-40 57 -72 0 -47 -25 -59 -102 -51 -46 6 -59 4 -56 -5 12 -37 135 -33 174 6
49 49 18 119 -73 167 -17 9 -39 28 -48 42 -16 24 -16 28 0 52 14 23 22 25 68
23 29 -2 52 1 54 8 8 22 -87 31 -122 11z"/>
<path d="M2460 2496 c0 -141 2 -166 15 -166 13 0 15 20 15 122 0 82 3 119 10
112 6 -6 36 -59 68 -119 85 -160 92 -156 92 49 0 141 -2 166 -15 166 -13 0
-15 -20 -15 -122 0 -91 -3 -119 -11 -111 -7 7 -37 60 -69 120 -83 158 -90 154
-90 -51z"/>
<path d="M2756 2503 c-25 -87 -46 -161 -46 -165 0 -5 6 -8 13 -8 8 0 19 18 26
40 l12 41 61 -3 c60 -3 62 -4 73 -38 6 -19 20 -37 29 -38 22 -5 20 6 -37 188
-35 111 -46 136 -63 138 -18 3 -26 -14 -68 -155z m93 18 c12 -38 21 -74 21
-80 0 -11 -82 -16 -92 -6 -5 5 16 85 37 143 8 21 13 13 34 -57z"/>
<path d="M3000 2645 c0 -10 11 -15 35 -15 l35 0 0 -135 0 -135 -35 0 c-24 0
-35 -5 -35 -15 0 -12 17 -15 90 -15 73 0 90 3 90 15 0 10 -11 15 -35 15 l-35
0 0 134 0 135 32 3 c17 2 33 9 36 16 3 9 -19 12 -87 12 -74 0 -91 -3 -91 -15z"/>
<path d="M3272 2498 l3 -163 84 0 c57 0 86 4 88 12 3 8 -16 13 -64 15 l-68 3
-3 148 c-2 139 -4 147 -23 147 -19 0 -19 -6 -17 -162z"/>
<path d="M4850 2496 c0 -159 1 -166 20 -166 18 0 20 7 20 59 l0 59 47 7 c97
14 149 117 88 175 -20 19 -39 24 -100 28 l-75 5 0 -167z m151 113 c5 -8 9 -31
9 -51 0 -45 -36 -78 -86 -78 l-34 0 0 74 c0 50 4 76 12 78 21 7 90 -9 99 -23z"/>
<path d="M5145 2513 c-25 -82 -49 -156 -52 -166 -10 -36 30 -13 42 23 11 34
13 35 69 38 l57 3 16 -40 c11 -29 22 -41 36 -41 11 0 17 5 14 13 -4 12 -83
265 -93 300 -3 9 -14 17 -24 17 -16 0 -27 -26 -65 -147z m91 -1 c12 -37 20
-70 17 -74 -7 -12 -93 -9 -93 3 0 22 42 150 48 144 3 -3 16 -36 28 -73z"/>
<path d="M3904 1248 c-60 -81 -114 -193 -114 -236 0 -42 55 -102 93 -102 13 0
55 16 92 35 38 20 72 32 76 28 9 -9 -69 -153 -113 -207 -28 -35 -63 -49 -248
-97 -244 -63 -353 -192 -275 -325 30 -52 64 -77 133 -99 93 -31 127 -2 300
256 l117 174 60 13 c68 14 810 13 833 -1 9 -6 4 -19 -22 -50 -122 -151 -91
-297 64 -297 126 0 221 132 207 284 -4 34 -9 75 -12 91 -6 29 -4 31 67 63 84
38 134 75 124 91 -5 8 -20 2 -46 -19 -21 -17 -68 -41 -104 -55 l-67 -25 -34
72 c-41 84 -43 106 -14 142 30 38 65 32 63 -9 -1 -16 -5 -40 -9 -52 -5 -14 -3
-23 3 -23 17 0 32 35 34 75 3 82 -76 98 -143 29 -30 -31 -34 -41 -33 -87 0
-34 9 -72 27 -111 15 -32 27 -60 27 -62 0 -2 -16 -11 -35 -20 -25 -12 -39 -13
-48 -6 -25 21 -273 34 -585 30 -308 -3 -312 -3 -306 17 3 11 65 125 136 254
101 181 128 238 121 250 -19 30 -41 16 -92 -61 -91 -135 -253 -261 -312 -243
-19 6 -21 13 -16 51 4 43 38 104 104 192 38 50 40 62 14 86 -19 17 -21 16 -67
-46z m1102 -563 c3 -14 5 -58 3 -98 -6 -113 -56 -195 -130 -212 -41 -10 -80
29 -86 86 -10 86 50 177 152 232 42 22 54 21 61 -8z m-1148 -55 c-5 -32 -186
-281 -230 -317 -44 -37 -79 -41 -133 -19 -39 17 -57 45 -57 91 0 87 66 146
247 220 123 50 178 58 173 25z"/>
<path d="M4873 1204 c-18 -8 -55 -72 -48 -84 11 -17 25 -11 62 25 45 44 37 79
-14 59z"/>
</g>
</svg>
